<svg width="24" height="24" viewBox="0 0 24 24" xmlns="http://www.w3.org/2000/svg">
<path d="M16.191 8.25L7.81011 8.25C7.17102 8.25 6.78271 8.89316 7.13057 9.38847L11.321 15.4061C11.394 15.5114 11.4949 15.5982 11.6144 15.6583C11.734 15.7185 11.8682 15.75 12.0046 15.75C12.141 15.75 12.2753 15.7185 12.3948 15.6583C12.5143 15.5982 12.6152 15.5114 12.6882 15.4061L16.8706 9.38847C16.9495 9.27696 16.994 9.14806 16.9994 9.01536C17.0049 8.88266 16.971 8.75107 16.9014 8.63449C16.8318 8.51792 16.7291 8.42066 16.6041 8.35299C16.479 8.28531 16.3363 8.24973 16.191 8.25Z" fill="#23262F"/>
</svg>
