<svg width="24" height="24" viewBox="0 0 24 24" xmlns="http://www.w3.org/2000/svg">
<path fill-rule="evenodd" clip-rule="evenodd" d="M11.9901 4C14.1254 4 15.8894 5.63394 16.1068 7.7237L16.1675 7.72442C17.3521 7.72442 18.7923 8.51445 19.2783 10.7303L19.9229 15.7405C20.1541 17.3575 19.8649 18.6545 19.0619 19.5848C18.2629 20.5102 16.9983 21 15.4045 21H8.58495C6.83431 21 5.61465 20.5693 4.85574 19.6841C4.09356 18.7964 3.83868 17.4649 4.09846 15.7273L4.73239 10.7837C5.14901 8.51691 6.67256 7.72442 7.85218 7.72442C7.95402 6.78136 8.37745 5.8842 9.0492 5.21172C9.82119 4.44137 10.8856 4 11.9729 4H11.9901ZM16.1675 8.955H7.85218C7.49192 8.955 6.28779 9.10103 5.94224 10.9748L5.31158 15.8972C5.10653 17.2779 5.26502 18.2771 5.78376 18.8817C6.29596 19.479 7.21254 19.7694 8.58495 19.7694H15.4045C16.2607 19.7694 17.4297 19.598 18.1355 18.7792C18.6959 18.1303 18.8887 17.1638 18.709 15.9062L18.0726 10.9412C17.8014 9.71797 17.0858 8.955 16.1675 8.955ZM14.3726 11.2391C14.7108 11.2391 15.0041 11.5147 15.0041 11.8544C15.0041 12.194 14.7484 12.4696 14.4102 12.4696H14.3726C14.0344 12.4696 13.7599 12.194 13.7599 11.8544C13.7599 11.5147 14.0344 11.2391 14.3726 11.2391ZM9.60993 11.2391C9.94814 11.2391 10.2414 11.5147 10.2414 11.8544C10.2414 12.194 9.9849 12.4696 9.6467 12.4696H9.60993C9.27173 12.4696 8.99725 12.194 8.99725 11.8544C8.99725 11.5147 9.27173 11.2391 9.60993 11.2391ZM11.9876 5.23059H11.9754C11.2067 5.23059 10.4576 5.54152 9.91432 6.0838C9.47179 6.52621 9.18238 7.10781 9.08875 7.72403L14.8719 7.72426C14.662 6.31464 13.4482 5.23059 11.9876 5.23059Z"/>
</svg>
