<svg width="24" height="24" viewBox="0 0 24 24" xmlns="http://www.w3.org/2000/svg">
<path fill-rule="evenodd" clip-rule="evenodd" d="M2.82014 6.40991C4.78213 3.19204 8.28766 1.23484 12.0598 1.25009L12.0568 2.00008L12.0623 1.2501C16.5269 1.28283 20.5088 4.06372 22.0701 8.24148C23.6316 12.4194 22.4474 17.1257 19.0947 20.0709C15.7502 23.0088 10.9402 23.586 6.99488 21.5262C6.98778 21.523 6.98215 21.5203 6.9784 21.5184C6.95778 21.5084 6.93887 21.4983 6.92704 21.4919C6.90119 21.4778 6.8702 21.4603 6.8398 21.4429C6.80537 21.4231 6.76183 21.398 6.71516 21.371C6.68056 21.3509 6.64425 21.3299 6.60864 21.3094C6.4375 21.2108 6.2646 21.1132 6.15389 21.058C6.01688 21.0065 5.86743 20.9972 5.72508 21.0316C4.97256 21.3006 4.20377 21.522 3.4233 21.6943C3.37562 21.7048 3.32703 21.7107 3.27821 21.7118C2.93493 21.7194 2.52015 21.6315 2.23637 21.266C1.99267 20.9522 1.96784 20.5764 1.96784 20.3429C1.96784 20.2835 1.97489 20.2244 1.98885 20.1666C2.18459 19.3571 2.42936 18.5602 2.72182 17.7803C2.75947 17.6439 2.74341 17.4979 2.67642 17.3726L2.67049 17.3615L2.67059 17.3615L2.47159 16.9736C0.726408 13.6346 0.858598 9.62706 2.82014 6.40991ZM12.0526 2.75007C8.80531 2.73738 5.78879 4.42239 4.10086 7.19078C2.41279 9.9594 2.2995 13.408 3.80216 16.281L3.8049 16.2863L3.80487 16.2863L4.00266 16.6718C4.25849 17.1545 4.31149 17.7192 4.14964 18.2412C4.14524 18.2554 4.14042 18.2695 4.13519 18.2834C3.90794 18.8869 3.71152 19.5015 3.54666 20.1248C4.12261 19.9817 4.69098 19.8094 5.24957 19.6086C5.26755 19.6021 5.28577 19.5963 5.30419 19.5913C5.77955 19.4604 6.28497 19.4906 6.74129 19.6774C6.75534 19.6831 6.76921 19.6893 6.78288 19.6959C6.95071 19.7768 7.18532 19.9105 7.35756 20.0097C7.39939 20.0338 7.43725 20.0558 7.47164 20.0757C7.51458 20.1005 7.5521 20.1222 7.58519 20.1412C7.60533 20.1527 7.62026 20.1612 7.63077 20.167C7.64225 20.1723 7.65361 20.1779 7.66483 20.1838C11.0657 21.9721 15.2193 21.4786 18.1048 18.9439C20.99 16.4095 22.0082 12.3605 20.6651 8.76659C19.322 5.17284 15.896 2.77875 12.0526 2.75007Z"/>
<path fill-rule="evenodd" clip-rule="evenodd" d="M7.28715 12.2739C7.43679 12.2739 7.56018 12.1525 7.56018 12.0001C7.56018 11.8477 7.43679 11.7263 7.28715 11.7263C7.1375 11.7263 7.01411 11.8477 7.01411 12.0001C7.01411 12.1525 7.1375 12.2739 7.28715 12.2739ZM6.06018 12.0001C6.06018 11.3218 6.61066 10.7739 7.28715 10.7739C7.96363 10.7739 8.51411 11.3218 8.51411 12.0001C8.51411 12.6785 7.96363 13.2263 7.28715 13.2263C6.61066 13.2263 6.06018 12.6785 6.06018 12.0001Z"/>
<path fill-rule="evenodd" clip-rule="evenodd" d="M12.0568 12.2739C12.2064 12.2739 12.3298 12.1525 12.3298 12.0001C12.3298 11.8477 12.2064 11.7263 12.0568 11.7263C11.9072 11.7263 11.7838 11.8477 11.7838 12.0001C11.7838 12.1525 11.9072 12.2739 12.0568 12.2739ZM10.8298 12.0001C10.8298 11.3218 11.3803 10.7739 12.0568 10.7739C12.7333 10.7739 13.2838 11.3218 13.2838 12.0001C13.2838 12.6785 12.7333 13.2263 12.0568 13.2263C11.3803 13.2263 10.8298 12.6785 10.8298 12.0001Z"/>
<path fill-rule="evenodd" clip-rule="evenodd" d="M16.8265 12.2739C16.9761 12.2739 17.0995 12.1525 17.0995 12.0001C17.0995 11.8477 16.9761 11.7263 16.8265 11.7263C16.6768 11.7263 16.5534 11.8477 16.5534 12.0001C16.5534 12.1525 16.6768 12.2739 16.8265 12.2739ZM15.5995 12.0001C15.5995 11.3218 16.15 10.7739 16.8265 10.7739C17.5029 10.7739 18.0534 11.3218 18.0534 12.0001C18.0534 12.6785 17.5029 13.2263 16.8265 13.2263C16.15 13.2263 15.5995 12.6785 15.5995 12.0001Z"/>
</svg>
