<svg width="24" height="24" viewBox="0 0 24 24" xmlns="http://www.w3.org/2000/svg">
<path fill-rule="evenodd" clip-rule="evenodd" d="M11.1581 3C13.3019 3 15.0461 4.791 15.0461 6.9924V7.8312C15.0461 8.2038 14.7516 8.5062 14.3888 8.5062C14.0259 8.5062 13.7314 8.2038 13.7314 7.8312V6.9924C13.7314 5.5344 12.5771 4.35 11.1581 4.35H6.88536C5.46812 4.35 4.31469 5.5344 4.31469 6.9924V17.0085C4.31469 18.4656 5.46812 19.65 6.88536 19.65H11.1678C12.5806 19.65 13.7314 18.4692 13.7314 17.0184V16.1697C13.7314 15.7971 14.0259 15.4947 14.3888 15.4947C14.7516 15.4947 15.0461 15.7971 15.0461 16.1697V17.0184C15.0461 19.2144 13.3054 21 11.1678 21H6.88536C4.74328 21 3 19.2099 3 17.0085V6.9924C3 4.791 4.74328 3 6.88536 3H11.1581ZM18.24 8.8986L20.8063 11.5221C20.8292 11.5454 20.8497 11.5697 20.8685 11.5954L20.8063 11.5221C20.8374 11.5535 20.865 11.5879 20.8889 11.6245C20.8995 11.6411 20.9096 11.6583 20.9191 11.6759C20.9267 11.6897 20.9338 11.7041 20.9403 11.7187C20.9458 11.7316 20.9511 11.7446 20.9561 11.7577C20.9627 11.7748 20.9685 11.7924 20.9735 11.8102C20.9774 11.8242 20.9809 11.8382 20.984 11.8524C20.9879 11.8696 20.991 11.8869 20.9934 11.9043C20.9947 11.9156 20.9961 11.9275 20.9971 11.9395C20.9991 11.96 21 11.98 21 12L20.9955 12.0558L20.9937 12.0916C20.9935 12.0931 20.9933 12.0946 20.9931 12.0961L21 12C21 12.05 20.9946 12.0994 20.9841 12.1475C20.9809 12.1618 20.9774 12.1758 20.9734 12.1896C20.9685 12.2076 20.9627 12.2252 20.9562 12.2425C20.9511 12.2554 20.9458 12.2684 20.9401 12.2811C20.9338 12.2959 20.9267 12.3103 20.9192 12.3244C20.9096 12.3417 20.8995 12.3589 20.8886 12.3755C20.8825 12.3854 20.8757 12.3951 20.8687 12.4047C20.8478 12.4329 20.8251 12.4594 20.8005 12.484L18.24 15.1023C18.1121 15.2337 17.9438 15.2994 17.7764 15.2994C17.6081 15.2994 17.4389 15.2337 17.311 15.1005C17.055 14.8359 17.0559 14.4093 17.3127 14.1465L18.75 12.675H9.7889C9.42605 12.675 9.13156 12.3726 9.13156 12C9.13156 11.6274 9.42605 11.325 9.7889 11.325H18.7518L17.3127 9.8544C17.0559 9.5916 17.0542 9.165 17.311 8.9004C17.5669 8.6358 17.9823 8.6358 18.24 8.8986Z"/>
</svg>
