<svg width="24" height="24" viewBox="0 0 24 24" xmlns="http://www.w3.org/2000/svg">
<path fill-rule="evenodd" clip-rule="evenodd" d="M12 1.5C17.7896 1.5 22.5 6.21036 22.5 12C22.5 17.7896 17.7896 22.5 12 22.5C6.21036 22.5 1.5 17.7896 1.5 12C1.5 6.21036 6.21036 1.5 12 1.5ZM12 3.02012C7.04845 3.02012 3.02012 7.04946 3.02012 12C3.02012 16.9515 7.04845 20.9799 12 20.9799C16.9515 20.9799 20.9799 16.9515 20.9799 12C20.9799 7.04946 16.9515 3.02012 12 3.02012ZM15.9235 8.07697C16.1232 8.27762 16.1961 8.57253 16.111 8.84108L14.4977 13.9984C14.4237 14.2365 14.2362 14.423 13.9991 14.497L8.84179 16.1113C8.7668 16.1346 8.68978 16.1458 8.61479 16.1458C8.41616 16.1458 8.22158 16.0677 8.07666 15.9238C7.87702 15.7232 7.80405 15.4283 7.88918 15.1597L9.50355 10.0025C9.57753 9.76329 9.764 9.57784 10.0011 9.50386L15.1584 7.88948C15.429 7.80334 15.7229 7.87732 15.9235 8.07697ZM14.2271 9.77343L10.8352 10.8355L9.77413 14.2274L13.165 13.1653L14.2271 9.77343Z"/>
</svg>
