<svg width="24" height="24" viewBox="0 0 24 24" xmlns="http://www.w3.org/2000/svg"><path d="M13.141 11.9991V18.1271C13.1736 18.3604 13.0922 18.6093 12.905 18.7726C12.8297 18.8447 12.7402 18.9019 12.6417 18.9409C12.5433 18.9799 12.4377 19 12.3311 19C12.2245 19 12.1189 18.9799 12.0204 18.9409C11.922 18.9019 11.8325 18.8447 11.7572 18.7726L10.121 17.2095C10.0323 17.1265 9.96484 17.0251 9.92389 16.9131C9.88294 16.8012 9.86962 16.6817 9.88497 16.564V11.9991H9.86055L5.17184 6.25983C5.03966 6.09771 4.98001 5.89219 5.00594 5.68819C5.03187 5.48418 5.14127 5.29827 5.31023 5.17109C5.46489 5.06221 5.63583 5 5.81491 5H17.2111C17.3902 5 17.5611 5.06221 17.7158 5.17109C17.8847 5.29827 17.9941 5.48418 18.0201 5.68819C18.046 5.89219 17.9863 6.09771 17.8542 6.25983L13.1654 11.9991H13.141Z"/></svg>