<?xml version="1.0" encoding="utf-8"?><svg viewBox="0 0 24 24" xmlns="http://www.w3.org/2000/svg" xmlns:xlink="http://www.w3.org/1999/xlink"><style>:root>svg{display:none}:root>svg:target{display:block}</style><svg viewBox="0 0 24 24" id="arrow-type-1" xmlns="http://www.w3.org/2000/svg"><path fill-rule="evenodd" clip-rule="evenodd" d="M16.207 9.543a1 1 0 00-1.414 0L12 12.336 9.207 9.543a1 1 0 00-1.414 1.414l3.5 3.5a1 1 0 001.414 0l3.5-3.5a1 1 0 000-1.414z"/></svg><svg viewBox="0 0 24 24" id="arrow-type-2" xmlns="http://www.w3.org/2000/svg"><path fill-rule="evenodd" clip-rule="evenodd" d="M9.178 12.53a.75.75 0 010-1.06l4.583-4.584a.75.75 0 011.061 1.061L10.769 12l4.053 4.053a.75.75 0 01-1.06 1.06L9.177 12.53z"/></svg><svg viewBox="0 0 24 24" id="arrow-type-3" xmlns="http://www.w3.org/2000/svg"><path d="M16.191 8.25h-8.38c-.64 0-1.028.643-.68 1.138l4.19 6.018a.785.785 0 00.293.252.87.87 0 00.78 0c.12-.06.221-.147.294-.252l4.183-6.018a.686.686 0 00.03-.754.773.773 0 00-.297-.281.866.866 0 00-.413-.103z" fill="#23262F"/></svg><svg viewBox="0 0 24 24" id="basket" xmlns="http://www.w3.org/2000/svg"><path d="M1.739 9.193c.024-.06.051-.121.073-.182.177-.504.635-.858 1.166-.859 2.244-.006 4.488-.002 6.732-.002a.288.288 0 01.053.012c-.016.043-.029.085-.048.125-.522 1.086-.284 2.307.603 3.09.857.756 2.11.846 3.102.192 1.661-1.096 3.312-2.209 4.97-3.309a.68.68 0 01.348-.107c.728-.01 1.456-.006 2.184-.005.788 0 1.334.547 1.338 1.338.002.354 0 .709 0 1.063 0 .871-.408 1.346-1.282 1.469l-.24 1.451c-.328 2.019-.658 4.037-.989 6.056-.04.24-.083.492-.18.715-.212.494-.61.756-1.149.757-4.275.004-8.55.004-12.824 0-.663 0-1.175-.442-1.288-1.12-.315-1.888-.618-3.776-.924-5.66l-.362-2.205c-.441-.033-.81-.199-1.055-.572-.096-.147-.153-.321-.228-.482V9.193zM8.79 17.76c0-.021 0-.062-.008-.101l-.33-2.04c-.1-.606-.192-1.214-.3-1.82-.054-.3-.293-.49-.59-.509-.268-.016-.556.154-.623.41-.037.163-.042.33-.014.494.109.735.232 1.466.35 2.199.08.489.156.977.238 1.465.061.359.357.599.688.567a.644.644 0 00.59-.665zm8.313-3.745c.01-.41-.226-.683-.565-.723a.64.64 0 00-.692.506 2.662 2.662 0 00-.035.177l-.58 3.617c-.073.444.134.768.538.83.354.055.657-.2.723-.612l.389-2.391c.078-.488.154-.975.221-1.404h.001zm-5.742 1.847v1.847c0 .427.261.719.639.719.377 0 .643-.293.643-.717V14c0-.412-.262-.704-.63-.71-.38-.005-.651.287-.652.708-.004.621-.003 1.243-.003 1.866h.003z"/><path d="M11.994 10.719a1.278 1.278 0 01-1.218-.902 1.273 1.273 0 01.522-1.458c1.14-.767 2.287-1.526 3.43-2.291l4.23-2.825c.447-.297.918-.326 1.38-.06.442.253.654.662.633 1.17-.018.452-.24.796-.617 1.045a24952.592 24952.592 0 00-7.56 5.05c-.244.164-.501.277-.8.27z"/></svg><svg viewBox="0 0 24 24" id="basket-type-1" xmlns="http://www.w3.org/2000/svg"><path fill-rule="evenodd" clip-rule="evenodd" d="M11.99 4c2.135 0 3.9 1.634 4.117 3.724h.06c1.185 0 2.625.79 3.111 3.006l.645 5.01c.231 1.618-.058 2.914-.861 3.845-.8.925-2.064 1.415-3.658 1.415h-6.82c-1.75 0-2.97-.43-3.728-1.316-.762-.888-1.017-2.22-.758-3.957l.634-4.943c.417-2.267 1.94-3.06 3.12-3.06A4.211 4.211 0 019.05 5.212 4.167 4.167 0 0111.973 4h.017zm4.178 4.955H7.851c-.36 0-1.564.146-1.91 2.02l-.63 4.922c-.205 1.38-.047 2.38.472 2.985.512.597 1.429.887 2.8.887h6.82c.857 0 2.026-.171 2.732-.99.56-.649.753-1.615.573-2.873l-.636-4.965c-.272-1.223-.987-1.986-1.905-1.986zm-1.795 2.284a.63.63 0 01.631.615c0 .34-.256.616-.594.616h-.037a.614.614 0 010-1.23zm-4.763 0a.63.63 0 01.631.615.6.6 0 01-.594.616H9.61a.614.614 0 010-1.23zm2.378-6.008h-.013c-.768 0-1.517.31-2.06.853a2.957 2.957 0 00-.826 1.64h5.783a2.925 2.925 0 00-2.884-2.493z"/></svg><svg viewBox="0 0 24 24" id="box" xmlns="http://www.w3.org/2000/svg"><path d="M11.814 5.041a.498.498 0 01.372 0l5.968 2.399-2.404.965-6.154-2.472 2.218-.892zM8.25 6.474l6.154 2.473L12 9.913 5.846 7.44l2.404-.966zM5 8.182l6.5 2.613v7.96L5 16.143v-7.96zm7.5 10.574v-7.962L19 8.182v7.962l-6.5 2.612zm.057-14.648a1.493 1.493 0 00-1.114 0L4.314 6.974A.5.5 0 004 7.44v8.704a1.008 1.008 0 00.629.932l7.185 2.888c.12.048.253.048.372 0l7.184-2.888a1.001 1.001 0 00.63-.932V7.44a.504.504 0 00-.314-.466l-7.129-2.866z"/></svg><svg viewBox="0 0 24 24" id="call" xmlns="http://www.w3.org/2000/svg"><path fill-rule="evenodd" clip-rule="evenodd" d="M11.704 12.298c2.52 2.52 3.091-.395 4.695 1.208 1.547 1.546 2.436 1.856.476 3.815-.245.197-1.805 2.57-7.285-2.909-5.48-5.479-3.109-7.04-2.912-7.285 1.964-1.965 2.269-1.07 3.815.476 1.604 1.603-1.308 2.177 1.211 4.695z"/></svg><svg viewBox="0 0 24 24" id="chat" xmlns="http://www.w3.org/2000/svg"><path fill-rule="evenodd" clip-rule="evenodd" d="M2.82 6.41a10.77 10.77 0 019.24-5.16l-.003.75.005-.75A10.765 10.765 0 0122.07 8.241a10.74 10.74 0 01-2.975 11.83A10.78 10.78 0 016.84 21.443a56.918 56.918 0 01-.231-.134 10.176 10.176 0 00-.455-.251.731.731 0 00-.429-.026c-.752.269-1.521.49-2.302.662a.754.754 0 01-.145.018c-.343.007-.758-.08-1.042-.446-.243-.314-.268-.69-.268-.923a.75.75 0 01.02-.176c.197-.81.441-1.607.734-2.387a.553.553 0 00-.046-.407l-.006-.012-.198-.387A10.736 10.736 0 012.82 6.41zm9.233-3.66A9.27 9.27 0 004.1 7.19a9.236 9.236 0 00-.299 9.091l.003.005.198.386a2.053 2.053 0 01.132 1.611 19.043 19.043 0 00-.588 1.842 17.528 17.528 0 001.757-.534 2.23 2.23 0 011.479.105c.168.08.402.214.575.314l.114.066.113.065a4.11 4.11 0 00.08.043 9.279 9.279 0 0010.44-1.24 9.24 9.24 0 002.56-10.177 9.266 9.266 0 00-8.612-6.017z"/><path fill-rule="evenodd" clip-rule="evenodd" d="M7.287 12.274a.273.273 0 100-.547.273.273 0 000 .547zM6.06 12a1.227 1.227 0 112.453 0 1.227 1.227 0 01-2.453 0zM12.057 12.274a.273.273 0 10-.001-.547.273.273 0 000 .547zM10.83 12a1.227 1.227 0 112.453.001 1.227 1.227 0 01-2.453 0zM16.826 12.274a.273.273 0 100-.547.273.273 0 000 .547zM15.6 12a1.227 1.227 0 112.453.001 1.227 1.227 0 01-2.454 0z"/></svg><svg viewBox="0 0 24 24" id="chat-fill" xmlns="http://www.w3.org/2000/svg"><path d="M12.016 4C16.56 4 20 7.726 20 11.988 20 16.931 15.968 20 12 20c-1.312 0-2.768-.352-3.936-1.042-.408-.248-.752-.432-1.192-.288l-1.616.48c-.408.129-.776-.192-.656-.624l.536-1.795a.839.839 0 00-.056-.721C4.392 14.744 4 13.358 4 12.012 4 7.798 7.368 4 12.016 4zm3.656 6.995c-.568 0-1.024.456-1.024 1.025 0 .56.456 1.026 1.024 1.026a1.027 1.027 0 000-2.051zm-3.688 0a1.02 1.02 0 00-1.024 1.017c0 .569.456 1.026 1.024 1.034a1.027 1.027 0 000-2.051zm-3.688 0c-.568 0-1.024.456-1.024 1.025 0 .56.464 1.026 1.024 1.026A1.032 1.032 0 009.32 12.02c0-.569-.456-1.025-1.024-1.025z"/></svg><svg viewBox="0 0 24 24" id="close-type-1" xmlns="http://www.w3.org/2000/svg"><path fill-rule="evenodd" clip-rule="evenodd" d="M12 19.5a7.5 7.5 0 100-15 7.5 7.5 0 000 15zm3.088-9.88a.5.5 0 10-.707-.708L12 11.292l-2.38-2.38a.5.5 0 00-.708.707L11.292 12l-2.38 2.38a.5.5 0 10.707.708L12 12.708l2.38 2.38a.5.5 0 10.708-.707L12.708 12l2.38-2.38z"/></svg><svg viewBox="0 0 24 24" id="dashboard" xmlns="http://www.w3.org/2000/svg"><path fill-rule="evenodd" clip-rule="evenodd" d="M15.487 4C18.187 4 20 5.895 20 8.714v6.572C20 18.106 18.186 20 15.487 20H8.513C5.813 20 4 18.105 4 15.286V8.714C4 5.894 5.814 4 8.513 4h6.974zm0 1.116H8.513c-2.063 0-3.397 1.412-3.397 3.598v6.572c0 2.186 1.334 3.598 3.397 3.598h6.974c2.064 0 3.397-1.412 3.397-3.598V8.714c0-2.186-1.333-3.598-3.397-3.598zm-6.932 4.988c.308 0 .558.25.558.558v5.105a.558.558 0 01-1.116 0v-5.105c0-.308.25-.558.558-.558zm3.473-2.444c.308 0 .558.25.558.558v7.549a.558.558 0 01-1.116 0V8.218c0-.308.25-.558.558-.558zm3.416 5.142c.308 0 .559.25.559.558v2.407a.558.558 0 01-1.117 0V13.36c0-.308.25-.558.558-.558z"/></svg><svg viewBox="0 0 24 24" id="document" xmlns="http://www.w3.org/2000/svg"><path fill-rule="evenodd" clip-rule="evenodd" d="M7.636 2c-1.691 0-3.117.603-4.118 1.676C2.523 4.744 2 6.222 2 7.888v8.224c0 1.665.52 3.143 1.515 4.212C4.515 21.396 5.94 22 7.636 22h8.728c1.695 0 3.122-.603 4.121-1.677C21.48 19.255 22 17.777 22 16.112V7.888c0-1.665-.52-3.143-1.515-4.211C19.485 2.603 18.06 2 16.364 2H7.636zM3.374 7.888c0-1.381.43-2.504 1.15-3.275.713-.766 1.761-1.24 3.112-1.24h8.728c1.356 0 2.403.475 3.116 1.24.717.77 1.146 1.893 1.146 3.275v8.224c0 1.382-.429 2.505-1.146 3.275-.713.765-1.76 1.24-3.116 1.24H7.636c-1.356 0-2.404-.475-3.116-1.24-.717-.77-1.146-1.893-1.146-3.275V7.888zm10.291.48a.687.687 0 000-1.374H7.277a.687.687 0 000 1.374h6.388zm3.058 4.345a.687.687 0 000-1.373H7.277a.687.687 0 100 1.373h9.446zm-5.745 3.589c0 .38-.308.687-.687.687H7.278a.687.687 0 110-1.374h3.013c.38 0 .687.307.687.687z"/></svg><svg viewBox="0 0 24 24" id="exit" xmlns="http://www.w3.org/2000/svg"><path fill-rule="evenodd" clip-rule="evenodd" d="M11.158 3c2.144 0 3.888 1.791 3.888 3.992v.84a.667.667 0 01-.657.674.667.667 0 01-.658-.675v-.839c0-1.458-1.154-2.642-2.573-2.642H6.885c-1.417 0-2.57 1.184-2.57 2.642V17.01c0 1.457 1.153 2.641 2.57 2.641h4.283c1.413 0 2.563-1.18 2.563-2.632v-.848c0-.373.295-.675.658-.675.363 0 .657.302.657.675v.848c0 2.196-1.74 3.982-3.878 3.982H6.885C4.743 21 3 19.21 3 17.009V6.992C3 4.791 4.743 3 6.885 3h4.273zm7.082 5.899l2.566 2.623a.66.66 0 01.063.073l-.063-.073a.652.652 0 01.178.33.614.614 0 01.01.052l.003.036A.62.62 0 0121 12l-.005.056-.001.036v.004L21 12a.691.691 0 01-.2.484l-2.56 2.618a.646.646 0 01-.929-.002.688.688 0 01.002-.954l1.437-1.471H9.789A.667.667 0 019.132 12c0-.373.294-.675.657-.675h8.963l-1.44-1.47a.687.687 0 01-.001-.955.644.644 0 01.929-.001z"/></svg><svg viewBox="0 0 24 24" id="faq-icon-1" xmlns="http://www.w3.org/2000/svg"><path fill-rule="evenodd" clip-rule="evenodd" d="M16.334 2C19.723 2 22 4.378 22 7.916v8.168C22 19.622 19.723 22 16.332 22H7.664C4.276 22 2 19.622 2 16.084V7.916C2 4.378 4.276 2 7.664 2h8.67zm0 1.5h-8.67C5.135 3.5 3.5 5.233 3.5 7.916v8.168c0 2.683 1.635 4.416 4.164 4.416h8.668c2.532 0 4.168-1.733 4.168-4.416V7.916c0-2.683-1.636-4.416-4.166-4.416zm-4.34 7.75a.75.75 0 01.75.75v4a.75.75 0 01-1.5 0v-4a.75.75 0 01.75-.75zm.005-4.046a1 1 0 110 2 1.003 1.003 0 01-1.005-1c0-.553.443-1 .995-1h.01z"/></svg><svg viewBox="0 0 24 24" id="faq-icon-2" xmlns="http://www.w3.org/2000/svg"><path fill-rule="evenodd" clip-rule="evenodd" d="M12 1.5c5.79 0 10.5 4.71 10.5 10.5S17.79 22.5 12 22.5 1.5 17.79 1.5 12 6.21 1.5 12 1.5zm0 1.52c-4.952 0-8.98 4.03-8.98 8.98 0 4.951 4.028 8.98 8.98 8.98 4.951 0 8.98-4.029 8.98-8.98 0-4.95-4.029-8.98-8.98-8.98zm3.924 5.057c.2.2.272.496.187.764l-1.613 5.157a.76.76 0 01-.499.499l-5.157 1.614a.767.767 0 01-.765-.187.76.76 0 01-.188-.764l1.615-5.158A.756.756 0 0110 9.505l5.157-1.615a.758.758 0 01.766.188zm-1.697 1.696l-3.392 1.063-1.06 3.391 3.39-1.062 1.062-3.392z"/></svg><svg viewBox="0 0 24 24" id="faq-icon-3" xmlns="http://www.w3.org/2000/svg"><path fill-rule="evenodd" clip-rule="evenodd" d="M16.509 2a6.263 6.263 0 016.256 6.257v7.486A6.263 6.263 0 0116.509 22H7.492a6.264 6.264 0 01-6.257-6.257V8.257A6.264 6.264 0 017.492 2h9.017zm0 1.565H7.492A4.698 4.698 0 002.8 8.257v7.486a4.698 4.698 0 004.692 4.692h9.017a4.697 4.697 0 004.69-4.692v-.292h-3.44a3.594 3.594 0 01-3.59-3.587c0-1.98 1.61-3.59 3.59-3.591h3.44v-.016a4.697 4.697 0 00-4.69-4.692zm4.69 6.272h-3.44a2.03 2.03 0 00-2.025 2.027c0 1.115.91 2.023 2.026 2.023h3.44v-4.05zm-2.962 1.18a.783.783 0 010 1.564h-.325a.783.783 0 010-1.565h.325zm-5.856-4.283a.783.783 0 010 1.565H6.75a.783.783 0 010-1.565h5.632z"/></svg><svg viewBox="0 0 24 24" id="filter" xmlns="http://www.w3.org/2000/svg"><path d="M13.141 12v6.127a.726.726 0 01-.236.646.844.844 0 01-1.148 0l-1.636-1.564a.767.767 0 01-.197-.296.737.737 0 01-.039-.349v-4.565h-.024L5.17 6.26a.753.753 0 01.14-1.088A.874.874 0 015.814 5H17.21c.18 0 .35.062.505.171a.753.753 0 01.138 1.089L13.165 12h-.024z"/></svg><svg viewBox="0 0 24 24" id="heart-fill" xmlns="http://www.w3.org/2000/svg"><path fill-rule="evenodd" clip-rule="evenodd" d="M12 6.567c4.993-5.56 17.476 2.425 0 12.69-17.476-10.264-4.993-18.25 0-12.69z"/></svg><svg viewBox="0 0 24 24" id="heart-outline" xmlns="http://www.w3.org/2000/svg"><path fill-rule="evenodd" clip-rule="evenodd" d="M12 8.064l-.744-.829c-2.07-2.305-5.63-1.721-6.826.26-.554.918-.706 2.31.362 4.17 1.044 1.817 3.235 4.023 7.208 6.428 3.973-2.405 6.164-4.611 7.208-6.43 1.068-1.86.916-3.25.362-4.168-1.196-1.981-4.756-2.565-6.826-.26L12 8.064zm0 11.193C-4.673 9.465 5.923 1.746 11.268 5.885c.257.2.503.427.732.682.23-.255.475-.482.732-.682 5.345-4.14 15.941 3.579-.732 13.372z"/></svg><svg viewBox="0 0 18 18" id="home" xmlns="http://www.w3.org/2000/svg"><path fill-rule="evenodd" clip-rule="evenodd" d="M9.93 11.468c.764 0 1.385.679 1.385 1.513v2.146c0 .179.13.323.298.327h1.209c.953 0 1.727-.841 1.727-1.875V7.494a1.211 1.211 0 00-.423-.913L9.945 2.913a1.425 1.425 0 00-1.91.002L3.883 6.579a1.21 1.21 0 00-.432.927v6.073c0 1.034.775 1.875 1.727 1.875h1.22c.172 0 .311-.15.311-.334 0-.04.005-.081.013-.12v-2.019c0-.83.617-1.507 1.375-1.513H9.93zm2.892 5.032h-1.22c-.699-.018-1.238-.621-1.238-1.373V12.98c0-.257-.195-.466-.434-.466H8.1c-.234 0-.427.21-.427.466v2.139a.553.553 0 01-.02.15c-.068.69-.605 1.23-1.255 1.23h-1.22c-1.477 0-2.678-1.31-2.678-2.921V7.5c.006-.694.297-1.328.798-1.746l4.145-3.658c.912-.796 2.184-.796 3.094-.002l4.174 3.662c.49.41.78 1.044.789 1.73v6.092c0 1.61-1.201 2.921-2.678 2.921z"/></svg><svg viewBox="0 0 24 24" id="logo-telegram" xmlns="http://www.w3.org/2000/svg"><path d="M9.28 17.093v3.865a.626.626 0 001.134.37l2.27-3.076-3.403-1.159zM21.776 2.533a.63.63 0 00-.654-.045L2.298 12.279a.626.626 0 00.087 1.146l5.233 1.782 11.144-9.492-8.623 10.35 8.77 2.985a.632.632 0 00.529-.058.628.628 0 00.294-.441l2.3-15.417a.625.625 0 00-.256-.601z" fill="#23262F"/></svg><svg viewBox="0 0 24 24" id="minus-type-1" xmlns="http://www.w3.org/2000/svg"><path fill-rule="evenodd" clip-rule="evenodd" d="M4 11.5a.5.5 0 01.5-.5h14a.5.5 0 010 1h-14a.5.5 0 01-.5-.5z"/></svg><svg viewBox="0 0 24 24" id="minus-type-2" xmlns="http://www.w3.org/2000/svg"><path fill-rule="evenodd" clip-rule="evenodd" d="M6 12a1 1 0 011-1h10a1 1 0 110 2H7a1 1 0 01-1-1z"/></svg><svg viewBox="0 0 24 24" id="nav-icon-1" xmlns="http://www.w3.org/2000/svg"><path fill-rule="evenodd" clip-rule="evenodd" d="M17.04 9.2a.75.75 0 01.134 1.052l-2.929 3.78a.75.75 0 01-1.056.131l-2.819-2.214-2.53 3.29a.75.75 0 11-1.19-.915l2.994-3.89a.75.75 0 011.057-.132l2.82 2.215 2.467-3.183a.75.75 0 011.053-.134zM19.995 3.028a1.172 1.172 0 100 2.345 1.172 1.172 0 000-2.345zM17.323 4.2a2.672 2.672 0 115.345 0 2.672 2.672 0 01-5.345 0z"/><path fill-rule="evenodd" clip-rule="evenodd" d="M3.538 4.053c1-1.078 2.427-1.683 4.119-1.683h7.268a.75.75 0 010 1.5H7.657c-1.32 0-2.332.462-3.019 1.203-.692.747-1.11 1.84-1.11 3.191v8.083c0 1.355.41 2.445 1.097 3.187.68.736 1.69 1.198 3.032 1.198h8.604c1.32 0 2.333-.46 3.02-1.2.691-.744 1.109-1.834 1.109-3.185v-7.04a.75.75 0 011.5 0v7.04c0 1.66-.517 3.137-1.511 4.207-1 1.076-2.427 1.678-4.118 1.678H7.657c-1.707 0-3.136-.6-4.133-1.68-.991-1.071-1.496-2.55-1.496-4.205V8.264c0-1.66.516-3.139 1.51-4.211z"/></svg><svg viewBox="0 0 24 24" id="nav-icon-2" xmlns="http://www.w3.org/2000/svg"><path fill-rule="evenodd" clip-rule="evenodd" d="M5.434 10.51l-.775 6.02-.002.016c-.316 2.107.112 3.2.747 3.796.673.633 1.781.908 3.262.908h8.348c1.42 0 2.53-.374 3.222-1.076.672-.682 1.084-1.81.822-3.633l-.001-.01-.774-6.008c-.422-1.867-1.501-2.455-2.336-2.455H7.77c-.452 0-.94.154-1.357.519-.412.36-.796.961-.978 1.924zm-.009-3.053a3.554 3.554 0 012.344-.889h10.178c1.688 0 3.273 1.236 3.808 3.664a.731.731 0 01.012.066l.777 6.036c.305 2.13-.144 3.782-1.24 4.893-1.076 1.092-2.643 1.523-4.29 1.523H8.666c-1.586 0-3.187-.279-4.29-1.314-1.14-1.071-1.554-2.758-1.204-5.105l.777-6.033a.752.752 0 01.007-.041c.231-1.25.76-2.18 1.47-2.8z"/><path fill-rule="evenodd" clip-rule="evenodd" d="M9.235 3.506a5.07 5.07 0 013.597-1.478 5.07 5.07 0 015.069 5.07.75.75 0 01-1.5 0 3.57 3.57 0 00-3.57-3.57h-.003m-.001 0a3.57 3.57 0 00-3.585 3.57.75.75 0 01-1.5 0 5.07 5.07 0 011.493-3.592M15 11.602a.75.75 0 01.75-.75h.046a.75.75 0 010 1.5h-.045a.75.75 0 01-.75-.75zM9.17 11.602a.75.75 0 01.75-.75h.046a.75.75 0 110 1.5H9.92a.75.75 0 01-.75-.75z"/></svg><svg viewBox="0 0 24 24" id="nav-icon-3" xmlns="http://www.w3.org/2000/svg"><path fill-rule="evenodd" clip-rule="evenodd" d="M15.482 7.74a.75.75 0 01.186.754l-1.593 5.09a.75.75 0 01-.492.491l-5.089 1.593a.75.75 0 01-.94-.94l1.593-5.09a.75.75 0 01.492-.491l5.089-1.593a.75.75 0 01.754.186zm-5.02 2.721l-1.048 3.347 3.347-1.047 1.047-3.347-3.347 1.047z"/><path fill-rule="evenodd" clip-rule="evenodd" d="M11.611 2.75a8.861 8.861 0 100 17.722 8.861 8.861 0 000-17.722zM1.25 11.611C1.25 5.889 5.889 1.25 11.611 1.25s10.361 4.639 10.361 10.361-4.639 10.361-10.361 10.361S1.25 17.333 1.25 11.611z"/></svg><svg viewBox="0 0 24 24" id="nav-icon-4" xmlns="http://www.w3.org/2000/svg"><path fill-rule="evenodd" clip-rule="evenodd" d="M7.746 16.223a.75.75 0 01.75-.75h7.22a.75.75 0 010 1.5h-7.22a.75.75 0 01-.75-.75zM7.746 12.037a.75.75 0 01.75-.75h7.22a.75.75 0 010 1.5h-7.22a.75.75 0 01-.75-.75zM7.746 7.86a.75.75 0 01.75-.75h2.755a.75.75 0 010 1.5H8.496a.75.75 0 01-.75-.75z"/><path fill-rule="evenodd" clip-rule="evenodd" d="M15.909 2c1.56 0 2.893.515 3.836 1.487.94.97 1.42 2.323 1.42 3.87v9.196c0 1.54-.477 2.886-1.409 3.854-.935.971-2.257 1.49-3.806 1.5h-.004l-7.689.003c-1.56 0-2.894-.515-3.836-1.488C3.48 19.452 3 18.1 3 16.552V7.358c0-1.54.477-2.886 1.409-3.854.934-.971 2.257-1.49 3.805-1.5h.005L15.909 2zm0 1.5l-7.685.004h-.002c-1.21.008-2.122.406-2.732 1.039-.612.637-.99 1.584-.99 2.814v9.196c0 1.237.38 2.188.998 2.825.615.635 1.535 1.032 2.758 1.032l7.685-.003h.002c1.21-.008 2.122-.406 2.732-1.04.613-.637.99-1.584.99-2.814V7.357c0-1.237-.38-2.188-.997-2.826-.616-.635-1.536-1.031-2.76-1.031z"/></svg><svg viewBox="0 0 24 24" id="nav-icon-5" xmlns="http://www.w3.org/2000/svg"><path fill-rule="evenodd" clip-rule="evenodd" d="M20.807 7.624l-.623-1.08a1.913 1.913 0 00-2.608-.705v0a1.904 1.904 0 01-2.61-.678 1.832 1.832 0 01-.255-.915v0a1.913 1.913 0 00-1.914-1.968h-1.254A1.904 1.904 0 009.64 4.191v0a1.913 1.913 0 01-1.913 1.886 1.83 1.83 0 01-.916-.257v0a1.913 1.913 0 00-2.608.705l-.669 1.099a1.913 1.913 0 00.696 2.608v0a1.913 1.913 0 010 3.314v0a1.904 1.904 0 00-.696 2.6v0l.632 1.089a1.913 1.913 0 002.609.741v0a1.894 1.894 0 012.6.696c.164.277.252.593.255.915v0c0 1.056.857 1.913 1.913 1.913h1.255c1.053 0 1.908-.85 1.912-1.904v0a1.904 1.904 0 011.914-1.913c.321.009.636.097.915.256v0a1.913 1.913 0 002.609-.695v0l.659-1.099a1.904 1.904 0 00-.696-2.608v0a1.904 1.904 0 01-.696-2.61c.166-.289.406-.529.696-.695v0a1.913 1.913 0 00.696-2.6v0-.008z" stroke="#000" stroke-width="1.5" stroke-linecap="round" stroke-linejoin="round"/><circle cx="12.175" cy="11.889" r="2.636" stroke="#000" stroke-width="1.5" stroke-linecap="round" stroke-linejoin="round"/></svg><svg viewBox="0 0 24 24" id="nav-icon-6" xmlns="http://www.w3.org/2000/svg"><path fill-rule="evenodd" clip-rule="evenodd" d="M5.368 8.093a.75.75 0 011.054-.118l4.3 3.432c.534.417 1.28.417 1.814 0l4.261-3.43a.75.75 0 11.941 1.168l-4.273 3.44a2.973 2.973 0 01-3.671 0l-.006-.003-4.302-3.435a.75.75 0 01-.118-1.054z"/><path fill-rule="evenodd" clip-rule="evenodd" d="M6.888 3.75c-2.429 0-4.138 1.958-4.138 4.544v6.528c0 2.586 1.71 4.544 4.138 4.544h9.424a4.207 4.207 0 003.034-1.35 4.267 4.267 0 001.126-3.194V8.294l.001-.044a4.267 4.267 0 00-1.127-3.15 4.207 4.207 0 00-3.035-1.35H6.888zM1.25 8.294c0-3.251 2.227-6.044 5.638-6.044h9.436a5.707 5.707 0 014.122 1.83 5.767 5.767 0 011.526 4.235v6.486a5.767 5.767 0 01-1.526 4.235 5.707 5.707 0 01-4.122 1.83H6.888c-3.411 0-5.638-2.792-5.638-6.044V8.294z"/></svg><svg viewBox="0 0 24 24" id="nav-icon-7" xmlns="http://www.w3.org/2000/svg"><path fill-rule="evenodd" clip-rule="evenodd" d="M6.1 7.495c-.054.627-.054 1.27-.054 1.941a.75.75 0 01-.016.152 5.619 5.619 0 01-1.333 2.623 2.85 2.85 0 00-.446 1.377V13.803a2.853 2.853 0 00.644 1.864 3.806 3.806 0 002.364 1.125h.009c3.142.338 6.312.338 9.454 0h.012a3.756 3.756 0 002.362-1.126c.44-.528.67-1.192.653-1.87v-.21a2.756 2.756 0 00-.445-1.365A5.704 5.704 0 0117.97 9.59a.743.743 0 01-.014-.1c-.025-.348-.024-.695-.023-1.01V8.43c.002-.338.001-.64-.024-.933-.266-2.727-3.02-4.746-5.87-4.746h-.078c-2.852 0-5.603 2.02-5.86 4.745zm-1.493-.138c.346-3.69 3.939-6.107 7.354-6.107h.078c3.416 0 7.006 2.416 7.363 6.105v.007c.033.372.033.74.031 1.072v.033c0 .31-.002.59.016.864a4.206 4.206 0 001.002 1.922.754.754 0 01.067.085 4.255 4.255 0 01.73 2.23v.2a4.317 4.317 0 01-1.05 2.917 5.255 5.255 0 01-3.321 1.6c-3.246.348-6.52.347-9.765 0a5.305 5.305 0 01-3.354-1.639 4.354 4.354 0 01-1.007-2.867v-.21a4.35 4.35 0 01.727-2.234.753.753 0 01.073-.094 4.122 4.122 0 00.995-1.885c0-.638.002-1.318.06-1.994l.001-.005zM9.088 20.265a.75.75 0 011.054.12 2.338 2.338 0 003.242.38l.01-.01h.001c.145-.108.275-.234.388-.373a.75.75 0 111.168.94c-.19.237-.41.449-.654.631a3.839 3.839 0 01-5.329-.634.75.75 0 01.12-1.054z"/></svg><svg viewBox="0 0 24 24" id="nav-icon-8" xmlns="http://www.w3.org/2000/svg"><path fill-rule="evenodd" clip-rule="evenodd" d="M2.82 6.41a10.77 10.77 0 019.24-5.16l-.003.75.005-.75A10.765 10.765 0 0122.07 8.242a10.74 10.74 0 01-2.975 11.829 10.78 10.78 0 01-12.1 1.455l-.017-.008a1.32 1.32 0 01-.138-.075l-.125-.072-.106-.061a10.176 10.176 0 00-.455-.252.73.73 0 00-.429-.026c-.752.269-1.521.49-2.302.662a.754.754 0 01-.145.018c-.343.008-.758-.08-1.042-.446-.243-.314-.268-.69-.268-.923a.75.75 0 01.02-.176c.197-.81.441-1.607.734-2.387a.553.553 0 00-.046-.407l-.006-.011-.198-.388A10.736 10.736 0 012.82 6.41zm9.233-3.66A9.27 9.27 0 004.1 7.19a9.236 9.236 0 00-.299 9.091l.003.005.198.386a2.053 2.053 0 01.132 1.611 19.043 19.043 0 00-.588 1.842 17.528 17.528 0 001.757-.534 2.231 2.231 0 011.479.105 10.25 10.25 0 01.689.38 31.469 31.469 0 00.159.091l.034.017a9.279 9.279 0 0010.44-1.24 9.24 9.24 0 002.56-10.177 9.266 9.266 0 00-8.612-6.017z"/><path fill-rule="evenodd" clip-rule="evenodd" d="M7.287 12.274a.273.273 0 100-.547.273.273 0 000 .547zM6.06 12a1.227 1.227 0 112.453.001 1.227 1.227 0 01-2.453 0zM12.057 12.274a.273.273 0 10-.001-.547.273.273 0 000 .547zM10.83 12a1.227 1.227 0 112.453.001 1.227 1.227 0 01-2.453 0zM16.826 12.274a.273.273 0 100-.547.273.273 0 000 .547zM15.6 12a1.227 1.227 0 112.453.001 1.227 1.227 0 01-2.454 0z"/></svg><svg viewBox="0 0 24 24" id="pills" xmlns="http://www.w3.org/2000/svg"><path fill-rule="evenodd" clip-rule="evenodd" d="M9.999 16.8a2.8 2.8 0 100-5.6 2.8 2.8 0 000 5.6zm0 1.2a4 4 0 100-8 4 4 0 000 8z"/><path d="M18.001 10a4 4 0 11-8 0 4 4 0 018 0z"/></svg><svg viewBox="0 0 24 24" id="plus-type-1" xmlns="http://www.w3.org/2000/svg"><path fill-rule="evenodd" clip-rule="evenodd" d="M11.5 4a.5.5 0 01.5.5V11h6.5a.5.5 0 010 1H12v6.5a.5.5 0 01-1 0V12H4.5a.5.5 0 010-1H11V4.5a.5.5 0 01.5-.5z"/></svg><svg viewBox="0 0 24 24" id="plus-type-2" xmlns="http://www.w3.org/2000/svg"><path fill-rule="evenodd" clip-rule="evenodd" d="M13 7a1 1 0 10-2 0v4H7a1 1 0 100 2h4v4a1 1 0 102 0v-4h4a1 1 0 100-2h-4V7z"/></svg><svg viewBox="0 0 24 24" id="plus-type-3" xmlns="http://www.w3.org/2000/svg"><path fill-rule="evenodd" clip-rule="evenodd" d="M16.36 2C19.732 2 22 4.368 22 7.893v8.214C22 19.632 19.733 22 16.36 22H7.64C4.268 22 2 19.632 2 16.107V7.893C2 4.368 4.267 2 7.64 2h8.72zm0 1.395H7.64c-2.578 0-4.245 1.765-4.245 4.498v8.214c0 2.733 1.667 4.498 4.246 4.498h8.718c2.58 0 4.246-1.765 4.246-4.498V7.893c0-2.733-1.666-4.498-4.246-4.498zM12 7.885c.385 0 .698.313.698.699v2.709h2.713a.698.698 0 010 1.396h-2.713v2.71a.698.698 0 01-1.396 0v-2.71H8.59a.697.697 0 110-1.396h2.713v-2.71c0-.385.313-.697.698-.697z"/></svg><svg viewBox="0 0 24 24" id="profile" xmlns="http://www.w3.org/2000/svg"><path d="M12 15.015c4.067 0 7.5.67 7.5 3.254 0 2.585-3.455 3.231-7.5 3.231-4.067 0-7.5-.67-7.5-3.254 0-2.585 3.455-3.23 7.5-3.23zM12 2.5c2.755 0 4.963 2.236 4.963 5.027 0 2.79-2.208 5.027-4.963 5.027-2.754 0-4.963-2.237-4.963-5.027S9.246 2.5 12 2.5z"/></svg><svg viewBox="0 0 24 24" id="qr-code" xmlns="http://www.w3.org/2000/svg"><path fill-rule="evenodd" clip-rule="evenodd" d="M3.374 6.309c0-.692.003-1.211.055-1.626.052-.41.143-.632.256-.773.106-.13.294-.269.71-.373.425-.107 1.034-.163 1.914-.163.88 0 1.488.056 1.914.163.415.104.603.242.709.373.113.14.204.363.256.773.053.415.055.934.055 1.626 0 .694 0 1.213-.05 1.63-.049.412-.138.632-.248.77-.102.13-.287.267-.704.371-.428.107-1.042.163-1.932.163-.89 0-1.505-.056-1.933-.163-.416-.104-.601-.242-.704-.37-.11-.139-.199-.359-.248-.77-.05-.418-.05-.937-.05-1.631zM6.309 2c-.917 0-1.659.057-2.249.204-.6.151-1.093.409-1.444.844-.343.425-.484.939-.55 1.463C2.001 5.029 2 5.642 2 6.309v.055c0 .643 0 1.236.06 1.738.062.522.197 1.037.538 1.465.35.437.843.695 1.446.846.591.148 1.338.204 2.265.204.926 0 1.673-.056 2.265-.204.603-.15 1.096-.409 1.445-.846.34-.428.476-.943.538-1.465.06-.502.06-1.095.06-1.738v-.055c0-.667 0-1.28-.066-1.798-.066-.524-.206-1.038-.55-1.463-.35-.435-.843-.693-1.444-.844C7.967 2.058 7.225 2 6.31 2zm8.445 4.309c0-.692.003-1.211.055-1.626.052-.41.143-.632.257-.773.105-.13.293-.269.708-.373.426-.107 1.035-.163 1.915-.163.88 0 1.488.056 1.914.163.415.104.604.242.71.373.113.14.204.363.255.773.053.415.056.934.056 1.626 0 .694 0 1.213-.05 1.63-.05.412-.138.632-.249.77-.102.13-.287.267-.704.371-.428.107-1.042.163-1.932.163-.89 0-1.505-.056-1.932-.163-.417-.104-.602-.242-.704-.37-.11-.139-.2-.359-.249-.77-.05-.418-.05-.937-.05-1.631zM17.69 2c-.917 0-1.659.057-2.249.204-.6.151-1.093.409-1.444.844-.343.425-.484.939-.55 1.463-.065.518-.066 1.131-.066 1.798v.055c0 .643 0 1.236.06 1.738.062.522.198 1.037.539 1.465.349.437.842.695 1.445.846.592.148 1.339.204 2.265.204.926 0 1.673-.056 2.265-.204.603-.15 1.096-.409 1.445-.846.341-.428.476-.943.539-1.465.06-.502.06-1.095.06-1.738v-.055c0-.667-.001-1.28-.067-1.798-.066-.524-.206-1.038-.55-1.463-.35-.435-.843-.693-1.444-.844C19.347 2.058 18.605 2 17.69 2zM3.429 16.065c-.052.416-.055.934-.055 1.626 0 .695 0 1.214.05 1.63.05.413.138.633.248.772.103.128.288.266.704.37.428.107 1.042.163 1.933.163.89 0 1.504-.056 1.932-.163.417-.104.602-.242.704-.37.11-.139.2-.36.248-.771.05-.417.05-.936.05-1.63 0-.692-.002-1.211-.055-1.627-.052-.41-.143-.632-.256-.772-.106-.13-.294-.27-.709-.373-.426-.107-1.035-.163-1.914-.163-.88 0-1.489.056-1.915.163-.415.104-.603.242-.709.373-.113.14-.204.362-.256.772zm.631-2.478c.59-.148 1.332-.204 2.249-.204.916 0 1.658.056 2.248.204.601.15 1.094.409 1.444.844.344.425.484.939.55 1.463.066.518.066 1.13.066 1.797v.056c0 .642 0 1.235-.06 1.738-.062.521-.197 1.037-.538 1.464-.349.438-.842.696-1.445.847-.592.147-1.34.204-2.265.204-.927 0-1.674-.057-2.265-.204-.603-.15-1.097-.41-1.446-.847-.34-.427-.476-.943-.538-1.464C2 18.982 2 18.389 2 17.747v-.056c0-.666 0-1.28.066-1.797.066-.524.207-1.038.55-1.463.35-.435.843-.693 1.444-.844zm10.694 4.104c0-.691.003-1.21.055-1.626.052-.41.143-.632.257-.772.105-.13.293-.27.708-.373.426-.107 1.035-.163 1.915-.163.88 0 1.488.056 1.914.163.415.104.604.242.71.373.113.14.204.362.255.772.053.416.056.934.056 1.626 0 .695 0 1.214-.05 1.63-.05.413-.138.633-.249.772-.102.128-.287.266-.704.37-.428.107-1.042.163-1.932.163-.89 0-1.505-.056-1.932-.163-.417-.104-.602-.242-.704-.37-.11-.139-.2-.36-.249-.771-.05-.417-.05-.936-.05-1.63zm2.935-4.308c-.917 0-1.659.056-2.249.204-.6.15-1.093.409-1.444.844-.343.425-.484.939-.55 1.463-.065.518-.066 1.13-.066 1.797v.056c0 .642 0 1.235.06 1.738.062.521.198 1.037.539 1.464.349.438.842.696 1.445.847.592.147 1.339.204 2.265.204.926 0 1.673-.057 2.265-.204.603-.15 1.096-.41 1.445-.847.341-.427.476-.943.539-1.464.06-.503.06-1.096.06-1.738v-.056c0-.666-.001-1.28-.067-1.797-.066-.524-.206-1.038-.55-1.463-.35-.435-.843-.693-1.444-.844-.59-.148-1.332-.204-2.248-.204z"/></svg><svg viewBox="0 0 24 24" id="sc-facebook" xmlns="http://www.w3.org/2000/svg"><path fill-rule="evenodd" clip-rule="evenodd" d="M0 12.067C0 18.033 4.333 22.994 10 24v-8.667H7V12h3V9.333c0-3 1.933-4.666 4.667-4.666.866 0 1.8.133 2.666.266V8H15.8c-1.467 0-1.8.733-1.8 1.667V12h3.2l-.533 3.333H14V24c5.667-1.006 10-5.966 10-11.933C24 5.43 18.6 0 12 0S0 5.43 0 12.067z"/></svg><svg viewBox="0 0 24 24" id="sc-instagram" xmlns="http://www.w3.org/2000/svg"><path d="M11.997 8.332A3.676 3.676 0 008.329 12a3.676 3.676 0 003.668 3.668A3.676 3.676 0 0015.665 12a3.676 3.676 0 00-3.668-3.668zM22.999 12c0-1.519.014-3.024-.072-4.54-.085-1.762-.487-3.325-1.774-4.613-1.291-1.29-2.851-1.69-4.613-1.775-1.519-.085-3.024-.071-4.54-.071-1.52 0-3.024-.014-4.54.071-1.762.086-3.325.487-4.613 1.775-1.29 1.29-1.69 2.851-1.775 4.612-.085 1.52-.071 3.025-.071 4.541 0 1.516-.014 3.024.071 4.54.085 1.762.487 3.325 1.775 4.613 1.29 1.29 2.851 1.69 4.612 1.775 1.52.085 3.024.071 4.54.071 1.52 0 3.025.014 4.541-.071 1.762-.086 3.325-.487 4.613-1.775 1.29-1.29 1.69-2.851 1.774-4.612.088-1.517.072-3.022.072-4.541zm-11.002 5.644A5.636 5.636 0 016.353 12a5.636 5.636 0 015.644-5.644A5.636 5.636 0 0117.641 12a5.636 5.636 0 01-5.644 5.644zm5.875-10.201c-.729 0-1.318-.589-1.318-1.318 0-.73.589-1.318 1.318-1.318a1.317 1.317 0 01.933 2.25 1.316 1.316 0 01-.933.386z"/></svg><svg viewBox="0 0 24 24" id="sc-youtube" xmlns="http://www.w3.org/2000/svg"><path d="M14.004 11.791l-2.808-1.31c-.245-.114-.446.014-.446.285v2.468c0 .271.201.399.446.285l2.806-1.31c.247-.115.247-.303.002-.418zM12 0C5.372 0 0 5.372 0 12s5.372 12 12 12 12-5.372 12-12S18.628 0 12 0zm0 16.875c-6.143 0-6.25-.554-6.25-4.875S5.857 7.125 12 7.125c6.142 0 6.25.554 6.25 4.875s-.108 4.875-6.25 4.875z"/></svg><svg viewBox="0 0 24 24" id="search" xmlns="http://www.w3.org/2000/svg"><path fill-rule="evenodd" clip-rule="evenodd" d="M11.22 6.475a4.606 4.606 0 100 9.212 4.606 4.606 0 000-9.212zM5.113 11.08a6.106 6.106 0 1112.213 0 6.106 6.106 0 01-12.213 0z" fill="#23262F"/><path fill-rule="evenodd" clip-rule="evenodd" d="M14.415 14.555a.75.75 0 011.06 0l3.192 3.19a.75.75 0 01-1.06 1.06l-3.192-3.19a.75.75 0 010-1.06z" fill="#23262F"/></svg><svg viewBox="0 0 24 24" id="settings" xmlns="http://www.w3.org/2000/svg"><path fill-rule="evenodd" clip-rule="evenodd" d="M12.518 4a2.24 2.24 0 011.586.66c.413.422.641 1 .624 1.587a.868.868 0 00.125.419.958.958 0 001.313.34c1.062-.6 2.414-.24 3.02.802l.517.885a.699.699 0 01.035.07 2.18 2.18 0 01-.838 2.909.954.954 0 00-.451 1.07c.066.246.225.45.448.576.503.287.88.77 1.03 1.326.15.556.067 1.16-.225 1.658l-.551.908c-.607 1.03-1.958 1.387-3.01.786a.996.996 0 00-.462-.127h-.005c-.24 0-.487.101-.666.278a.933.933 0 00-.28.673 2.203 2.203 0 01-2.21 2.18h-1.04c-1.218 0-2.21-.98-2.21-2.185a.96.96 0 00-1.433-.79 2.267 2.267 0 01-1.694.201 2.22 2.22 0 01-1.328-1.042l-.518-.883a2.167 2.167 0 01.805-2.974.955.955 0 00.482-.827.956.956 0 00-.482-.827 2.176 2.176 0 01-.806-2.98l.562-.913c.599-1.03 1.951-1.392 3.006-.793.143.085.299.127.457.129.517 0 .95-.422.958-.94a2.145 2.145 0 01.64-1.535C10.335 4.227 10.89 4 11.48 4h1.04zm0 1.23h-1.04c-.256 0-.497.1-.679.279a.933.933 0 00-.278.673 2.21 2.21 0 01-2.209 2.165 2.159 2.159 0 01-1.078-.297.972.972 0 00-1.307.357l-.562.913a.947.947 0 00.358 1.288A2.19 2.19 0 016.827 12.5c0 .778-.424 1.503-1.105 1.892a.942.942 0 00-.35 1.293l.524.892a.975.975 0 001.323.38c.329-.19.712-.29 1.097-.29a2.21 2.21 0 011.902 1.091c.188.313.292.678.295 1.05 0 .534.433.961.966.961h1.04c.53 0 .963-.425.965-.949-.003-.58.226-1.13.645-1.544.413-.409.99-.654 1.568-.637.378.009.742.11 1.064.29a.977.977 0 001.319-.345l.55-.909a.94.94 0 00-.353-1.29 2.167 2.167 0 010-3.778.95.95 0 00.346-1.295.455.455 0 01-.029-.056l-.486-.834a.972.972 0 00-1.316-.352c-.5.292-1.094.376-1.664.227a2.179 2.179 0 01-1.346-1.006 2.078 2.078 0 01-.298-1.055.973.973 0 00-.273-.717.975.975 0 00-.693-.288zm-.516 4.492c1.55 0 2.81 1.247 2.81 2.779 0 1.531-1.26 2.777-2.81 2.777-1.549 0-2.809-1.246-2.809-2.777 0-1.532 1.26-2.78 2.81-2.78zm0 1.23c-.863 0-1.565.695-1.565 1.549 0 .853.702 1.546 1.565 1.546s1.565-.693 1.565-1.546c0-.854-.702-1.549-1.565-1.549z"/></svg><svg viewBox="0 0 24 24" id="sorting" xmlns="http://www.w3.org/2000/svg"><path d="M7.625 11.2h8.75v1.6h-8.75v-1.6zM5 8h14v1.6H5V8zm5.25 6.4h3.5V16h-3.5v-1.6z"/></svg><svg viewBox="0 0 24 24" id="sorting-type-1" xmlns="http://www.w3.org/2000/svg"><path d="M12 7.5l2.598 3.75H9.402L12 7.5zM12 16.5l-2.598-3.75h5.196L12 16.5z"/></svg><svg viewBox="0 0 24 24" id="star-1" xmlns="http://www.w3.org/2000/svg"><path d="M11.552 1.946a.5.5 0 01.896 0l2.962 6.002a.5.5 0 00.377.273l6.623.963a.5.5 0 01.277.852l-4.792 4.672a.5.5 0 00-.144.443l1.131 6.596a.5.5 0 01-.725.527l-5.924-3.114a.5.5 0 00-.466 0l-5.924 3.114a.5.5 0 01-.725-.527l1.131-6.596a.5.5 0 00-.144-.443l-4.792-4.672a.5.5 0 01.277-.852l6.623-.963a.5.5 0 00.377-.273l2.962-6.002z"/></svg><svg viewBox="0 0 24 24" id="wallet" xmlns="http://www.w3.org/2000/svg"><path fill-rule="evenodd" clip-rule="evenodd" d="M15.35 4C17.916 4 20 6.113 20 8.71v5.638c0 2.597-2.085 4.71-4.65 4.71h-6.7c-2.564 0-4.65-2.113-4.65-4.71V8.71C4 6.113 6.086 4 8.65 4h6.7zm0 1.178h-6.7c-1.923 0-3.487 1.585-3.487 3.533v5.637c0 1.948 1.564 3.533 3.487 3.533h6.7c1.923 0 3.487-1.585 3.487-3.533v-.22h-2.556c-1.471 0-2.668-1.212-2.669-2.7 0-1.491 1.197-2.704 2.668-2.705h2.557V8.71c0-1.948-1.564-3.533-3.486-3.533zm3.487 4.723h-2.556c-.83.001-1.506.685-1.506 1.526 0 .84.676 1.523 1.505 1.523h2.557V9.9zm-2.202.888c.321 0 .582.264.582.589 0 .325-.26.589-.582.589h-.242a.585.585 0 01-.581-.59c0-.324.26-.588.581-.588h.242zm-4.352-3.225c.321 0 .582.264.582.59 0 .325-.26.588-.582.588H8.098a.585.585 0 01-.582-.589c0-.325.26-.589.582-.589h4.185z"/></svg></svg>