<svg width="24" height="24" viewBox="0 0 24 24" xmlns="http://www.w3.org/2000/svg">
<path fill-rule="evenodd" clip-rule="evenodd" d="M5.43449 10.5105L4.65918 16.5306L4.65704 16.546C4.34123 18.6528 4.76918 19.7463 5.40367 20.3424C6.07676 20.9747 7.18507 21.25 8.6659 21.25H17.0137C18.4331 21.25 19.5436 20.8759 20.236 20.1737C20.9082 19.4919 21.32 18.3631 21.0585 16.5413L21.057 16.5306L21.0571 16.5306L20.2834 10.5234C19.8614 8.65621 18.7817 8.06808 17.9474 8.06808H7.76887C7.31739 8.06808 6.82962 8.22184 6.41223 8.58653C6.00041 8.94635 5.6164 9.54798 5.43449 10.5105ZM5.42529 7.45695C6.13147 6.83994 6.9755 6.56808 7.76887 6.56808H17.9474C19.6347 6.56808 21.2203 7.80399 21.7553 10.2322C21.7601 10.2539 21.7639 10.2758 21.7667 10.2978L22.5441 16.3337C22.8486 18.4635 22.3998 20.1155 21.3041 21.2268C20.2276 22.3186 18.6608 22.75 17.0137 22.75H8.6659C7.08036 22.75 5.47929 22.4715 4.37664 21.4356C3.23664 20.3647 2.82215 18.6781 3.17245 16.3314L3.9495 10.2978C3.95126 10.2841 3.95339 10.2706 3.9559 10.257C4.18742 9.00678 4.71633 8.07638 5.42529 7.45695Z"/>
<path fill-rule="evenodd" clip-rule="evenodd" d="M9.23465 3.5055C10.1898 2.55437 11.4844 2.02274 12.8323 2.02803C15.6318 2.02889 17.901 4.29864 17.901 7.0984C17.901 7.51261 17.5652 7.8484 17.151 7.8484C16.7368 7.8484 16.401 7.51261 16.401 7.0984C16.401 5.12654 14.8025 3.52803 12.8307 3.52803C12.8296 3.52803 12.8285 3.52803 12.8275 3.52802M12.8266 3.52802C11.8774 3.52422 10.9657 3.89858 10.2931 4.5684C9.62022 5.23841 9.24198 6.14884 9.24199 7.09839C9.24199 7.2973 9.16297 7.48807 9.02232 7.62873C8.88167 7.76938 8.6909 7.8484 8.49199 7.8484C8.07778 7.8484 7.74199 7.51261 7.74199 7.0984C7.74198 5.74993 8.27912 4.45699 9.23465 3.5055"/>
<path fill-rule="evenodd" clip-rule="evenodd" d="M15.0006 11.6018C15.0006 11.1876 15.3364 10.8518 15.7506 10.8518H15.7963C16.2105 10.8518 16.5463 11.1876 16.5463 11.6018C16.5463 12.016 16.2105 12.3518 15.7963 12.3518H15.7506C15.3364 12.3518 15.0006 12.016 15.0006 11.6018Z"/>
<path fill-rule="evenodd" clip-rule="evenodd" d="M9.16991 11.6018C9.16991 11.1876 9.50569 10.8518 9.91991 10.8518H9.96567C10.3799 10.8518 10.7157 11.1876 10.7157 11.6018C10.7157 12.016 10.3799 12.3518 9.96567 12.3518H9.91991C9.50569 12.3518 9.16991 12.016 9.16991 11.6018Z"/>
</svg>
