<svg width="24" height="24" viewBox="0 0 24 24" xmlns="http://www.w3.org/2000/svg">
<path fill-rule="evenodd" clip-rule="evenodd" d="M9.99902 16.8001C11.5455 16.8001 12.7991 15.5464 12.7991 14C12.7991 12.4536 11.5455 11.1999 9.99902 11.1999C8.45259 11.1999 7.19895 12.4536 7.19895 14C7.19895 15.5464 8.45259 16.8001 9.99902 16.8001ZM9.99902 18.0001C12.2082 18.0001 13.9991 16.2092 13.9991 14C13.9991 11.7908 12.2082 9.99993 9.99902 9.99993C7.78985 9.99993 5.99895 11.7908 5.99895 14C5.99895 16.2092 7.78985 18.0001 9.99902 18.0001Z"/>
<path d="M18.001 10C18.001 12.2092 16.2102 14.0001 14.001 14.0001C11.7918 14.0001 10.0009 12.2092 10.0009 10C10.0009 7.79082 11.7918 5.99993 14.001 5.99993C16.2102 5.99993 18.001 7.79082 18.001 10Z"/>
</svg>
