<svg width="24" height="24" viewBox="0 0 24 24" xmlns="http://www.w3.org/2000/svg">
<path fill-rule="evenodd" clip-rule="evenodd" d="M3.37391 6.30867C3.37391 5.61681 3.37684 5.09796 3.42919 4.68268C3.48087 4.27275 3.57201 4.05085 3.68531 3.91036C3.7909 3.77942 3.97913 3.6412 4.39415 3.53718C4.82009 3.43042 5.42901 3.3739 6.30867 3.3739C7.18834 3.3739 7.79726 3.43042 8.2232 3.53718C8.63822 3.6412 8.82645 3.77942 8.93204 3.91036C9.04534 4.05085 9.13648 4.27275 9.18816 4.68268C9.24051 5.09796 9.24344 5.61681 9.24344 6.30867C9.24344 7.00296 9.24307 7.52205 9.1933 7.93922C9.14417 8.35106 9.05537 8.57138 8.9449 8.7099C8.84267 8.83809 8.6578 8.97591 8.24089 9.08002C7.81301 9.18686 7.19899 9.24344 6.30867 9.24344C5.41836 9.24344 4.80434 9.18686 4.37646 9.08002C3.95955 8.97591 3.77468 8.83809 3.67245 8.7099C3.56198 8.57138 3.47318 8.35106 3.42405 7.93922C3.37428 7.52205 3.37391 7.00296 3.37391 6.30867ZM6.30867 2C5.39203 2 4.65007 2.05663 4.06013 2.2045C3.45927 2.35509 2.96661 2.61295 2.61585 3.04788C2.2728 3.47326 2.13212 3.987 2.06608 4.51082C2.00071 5.02929 2.00001 5.64228 2.00001 6.30867L2 6.36389C1.99995 7.00661 1.99991 7.59974 2.05982 8.10196C2.12208 8.62386 2.25749 9.13919 2.5983 9.56654C2.94735 10.0042 3.44084 10.2625 4.04361 10.413C4.63542 10.5608 5.38241 10.6173 6.30867 10.6173C7.23494 10.6173 7.98193 10.5608 8.57374 10.413C9.17651 10.2625 9.67 10.0042 10.019 9.56654C10.3599 9.13919 10.4953 8.62386 10.5575 8.10196C10.6174 7.59974 10.6174 7.00661 10.6173 6.3639V6.36388L10.6173 6.30867C10.6173 5.64228 10.6166 5.02929 10.5513 4.51082C10.4852 3.987 10.3446 3.47326 10.0015 3.04788C9.65075 2.61295 9.15808 2.35509 8.55722 2.2045C7.96728 2.05663 7.22532 2 6.30867 2ZM14.7541 6.30867C14.7541 5.61681 14.757 5.09796 14.8094 4.68268C14.8611 4.27275 14.9522 4.05085 15.0655 3.91036C15.1711 3.77942 15.3593 3.6412 15.7744 3.53718C16.2003 3.43042 16.8092 3.3739 17.6889 3.3739C18.5685 3.3739 19.1775 3.43042 19.6034 3.53718C20.0184 3.6412 20.2067 3.77942 20.3123 3.91036C20.4255 4.05085 20.5167 4.27275 20.5684 4.68268C20.6207 5.09796 20.6236 5.61681 20.6236 6.30867C20.6236 7.00296 20.6233 7.52205 20.5735 7.93922C20.5244 8.35106 20.4356 8.57138 20.3251 8.7099C20.2229 8.83809 20.038 8.97591 19.6211 9.08002C19.1932 9.18686 18.5792 9.24344 17.6889 9.24344C16.7986 9.24344 16.1845 9.18686 15.7567 9.08002C15.3398 8.97591 15.1549 8.83809 15.0527 8.7099C14.9422 8.57138 14.8534 8.35106 14.8043 7.93922C14.7545 7.52205 14.7541 7.00296 14.7541 6.30867ZM17.6889 2C16.7722 2 16.0303 2.05663 15.4403 2.2045C14.8395 2.35509 14.3468 2.61295 13.9961 3.04788C13.653 3.47326 13.5123 3.987 13.4463 4.51082C13.3809 5.02929 13.3802 5.64228 13.3802 6.30867L13.3802 6.36389C13.3802 7.00661 13.3801 7.59974 13.44 8.10196C13.5023 8.62386 13.6377 9.13919 13.9785 9.56654C14.3276 10.0042 14.821 10.2625 15.4238 10.413C16.0156 10.5608 16.7626 10.6173 17.6889 10.6173C18.6152 10.6173 19.3621 10.5608 19.9539 10.413C20.5567 10.2625 21.0502 10.0042 21.3993 9.56654C21.7401 9.13919 21.8755 8.62386 21.9377 8.10196C21.9976 7.59977 21.9976 7.00666 21.9976 6.36399V6.36388L21.9976 6.30867C21.9976 5.64228 21.9968 5.02929 21.9315 4.51082C21.8654 3.987 21.7248 3.47326 21.3817 3.04788C21.031 2.61295 20.5383 2.35509 19.9374 2.2045C19.3475 2.05663 18.6055 2 17.6889 2ZM3.42919 16.0653C3.37684 16.4806 3.37391 16.9995 3.37391 17.6913C3.37391 18.3856 3.37428 18.9047 3.42405 19.3219C3.47318 19.7337 3.56198 19.954 3.67245 20.0926C3.77468 20.2207 3.95955 20.3586 4.37646 20.4627C4.80434 20.5695 5.41836 20.6261 6.30867 20.6261C7.19899 20.6261 7.81301 20.5695 8.24089 20.4627C8.6578 20.3586 8.84267 20.2207 8.9449 20.0926C9.05537 19.954 9.14417 19.7337 9.1933 19.3219C9.24307 18.9047 9.24344 18.3856 9.24344 17.6913C9.24344 16.9995 9.24051 16.4806 9.18816 16.0653C9.13648 15.6554 9.04534 15.4335 8.93204 15.293C8.82645 15.1621 8.63822 15.0238 8.2232 14.9198C7.79726 14.8131 7.18834 14.7566 6.30867 14.7566C5.42901 14.7566 4.82009 14.8131 4.39415 14.9198C3.97913 15.0238 3.7909 15.1621 3.68531 15.293C3.57201 15.4335 3.48087 15.6554 3.42919 16.0653ZM4.06013 13.5871C4.65007 13.4393 5.39203 13.3826 6.30867 13.3826C7.22532 13.3826 7.96728 13.4393 8.55722 13.5871C9.15808 13.7377 9.65075 13.9956 10.0015 14.4305C10.3446 14.8559 10.4852 15.3696 10.5513 15.8935C10.6166 16.4119 10.6173 17.0249 10.6173 17.6913L10.6173 17.7465V17.7466C10.6174 18.3893 10.6174 18.9824 10.5575 19.4846C10.4953 20.0065 10.3599 20.5218 10.019 20.9492C9.67 21.3869 9.17651 21.6451 8.57374 21.7956C7.98193 21.9434 7.23494 22 6.30867 22C5.38241 22 4.63542 21.9434 4.04361 21.7956C3.44084 21.6451 2.94735 21.3869 2.5983 20.9492C2.25749 20.5218 2.12208 20.0065 2.05982 19.4846C1.99991 18.9824 1.99995 18.3893 2 17.7465L2.00001 17.6913C2.00001 17.0249 2.00071 16.4119 2.06608 15.8935C2.13212 15.3696 2.2728 14.8559 2.61585 14.4305C2.96661 13.9956 3.45927 13.7377 4.06013 13.5871ZM14.7541 17.6913C14.7541 16.9995 14.757 16.4806 14.8094 16.0653C14.8611 15.6554 14.9522 15.4335 15.0655 15.293C15.1711 15.1621 15.3593 15.0238 15.7744 14.9198C16.2003 14.8131 16.8092 14.7566 17.6889 14.7566C18.5685 14.7566 19.1775 14.8131 19.6034 14.9198C20.0184 15.0238 20.2067 15.1621 20.3123 15.293C20.4255 15.4335 20.5167 15.6554 20.5684 16.0653C20.6207 16.4806 20.6236 16.9995 20.6236 17.6913C20.6236 18.3856 20.6233 18.9047 20.5735 19.3219C20.5244 19.7337 20.4356 19.954 20.3251 20.0926C20.2229 20.2207 20.038 20.3586 19.6211 20.4627C19.1932 20.5695 18.5792 20.6261 17.6889 20.6261C16.7986 20.6261 16.1845 20.5695 15.7567 20.4627C15.3398 20.3586 15.1549 20.2207 15.0527 20.0926C14.9422 19.954 14.8534 19.7337 14.8043 19.3219C14.7545 18.9047 14.7541 18.3856 14.7541 17.6913ZM17.6889 13.3826C16.7722 13.3826 16.0303 13.4393 15.4403 13.5871C14.8395 13.7377 14.3468 13.9956 13.9961 14.4305C13.653 14.8559 13.5123 15.3696 13.4463 15.8935C13.3809 16.4119 13.3802 17.0249 13.3802 17.6913L13.3802 17.7465C13.3802 18.3893 13.3801 18.9824 13.44 19.4846C13.5023 20.0065 13.6377 20.5218 13.9785 20.9492C14.3276 21.3869 14.821 21.6451 15.4238 21.7956C16.0156 21.9434 16.7626 22 17.6889 22C18.6152 22 19.3621 21.9434 19.9539 21.7956C20.5567 21.6451 21.0502 21.3869 21.3993 20.9492C21.7401 20.5218 21.8755 20.0065 21.9377 19.4846C21.9976 18.9824 21.9976 18.3893 21.9976 17.7466V17.7465L21.9976 17.6913C21.9976 17.0249 21.9968 16.4119 21.9315 15.8935C21.8654 15.3696 21.7248 14.8559 21.3817 14.4305C21.031 13.9956 20.5383 13.7377 19.9374 13.5871C19.3475 13.4393 18.6055 13.3826 17.6889 13.3826Z"/>
</svg>
