<svg width="24" height="24" viewBox="0 0 24 24" xmlns="http://www.w3.org/2000/svg">
<path d="M11.997 8.33177C9.97718 8.33177 8.32881 9.98014 8.32881 12C8.32881 14.0199 9.97718 15.6682 11.997 15.6682C14.0169 15.6682 15.6653 14.0199 15.6653 12C15.6653 9.98014 14.0169 8.33177 11.997 8.33177ZM22.999 12C22.999 10.481 23.0127 8.97571 22.9274 7.45943C22.8421 5.69824 22.4403 4.13519 21.1525 2.84732C19.8619 1.55669 18.3016 1.15767 16.5404 1.07237C15.0213 0.987059 13.5161 1.00082 11.9998 1.00082C10.4808 1.00082 8.9755 0.987059 7.45923 1.07237C5.69804 1.15767 4.13498 1.55945 2.84711 2.84732C1.55649 4.13794 1.15747 5.69824 1.07216 7.45943C0.986853 8.97846 1.00061 10.4837 1.00061 12C1.00061 13.5163 0.986853 15.0243 1.07216 16.5406C1.15747 18.3018 1.55924 19.8648 2.84711 21.1527C4.13773 22.4433 5.69804 22.8423 7.45923 22.9276C8.97825 23.0129 10.4835 22.9992 11.9998 22.9992C13.5188 22.9992 15.0241 23.0129 16.5404 22.9276C18.3016 22.8423 19.8646 22.4406 21.1525 21.1527C22.4431 19.8621 22.8421 18.3018 22.9274 16.5406C23.0155 15.0243 22.999 13.519 22.999 12V12ZM11.997 17.6441C8.87368 17.6441 6.35298 15.1234 6.35298 12C6.35298 8.87664 8.87368 6.35594 11.997 6.35594C15.1204 6.35594 17.6411 8.87664 17.6411 12C17.6411 15.1234 15.1204 17.6441 11.997 17.6441ZM17.8723 7.44292C17.143 7.44292 16.5541 6.85402 16.5541 6.12478C16.5541 5.39554 17.143 4.80664 17.8723 4.80664C18.6015 4.80664 19.1904 5.39554 19.1904 6.12478C19.1906 6.29794 19.1567 6.46945 19.0905 6.62947C19.0243 6.78949 18.9273 6.93489 18.8048 7.05733C18.6824 7.17978 18.537 7.27686 18.377 7.34303C18.2169 7.40919 18.0454 7.44314 17.8723 7.44292V7.44292Z"/>
</svg>
