<svg width="24" height="24" viewBox="0 0 24 24" xmlns="http://www.w3.org/2000/svg">
<path fill-rule="evenodd" clip-rule="evenodd" d="M12.5184 4C13.1124 4 13.6899 4.2412 14.1039 4.66044C14.5171 5.08214 14.7452 5.66054 14.7278 6.24714C14.7294 6.37923 14.7734 6.53183 14.8531 6.66556C14.985 6.88707 15.1932 7.04295 15.4405 7.10694C15.6877 7.16766 15.9466 7.13484 16.1664 7.00603C17.2284 6.4063 18.5799 6.76565 19.1864 7.80759L19.7033 8.69282C19.7165 8.71662 19.7282 8.73959 19.7381 8.76338C20.2874 9.78973 19.9206 11.0819 18.9002 11.6718C18.7516 11.7563 18.6313 11.8744 18.5484 12.0172C18.4198 12.2379 18.3841 12.5004 18.4488 12.7416C18.5152 12.9877 18.6737 13.192 18.8968 13.3184C19.4004 13.6047 19.7763 14.0871 19.9264 14.6442C20.0766 15.2004 19.9945 15.8043 19.7016 16.3023L19.1507 17.2096C18.5442 18.2401 17.1927 18.597 16.1415 17.9964C16.0013 17.9168 15.8395 17.8734 15.6786 17.8693H15.6736C15.4338 17.8693 15.1874 17.9702 15.0082 18.1466C14.8265 18.3262 14.727 18.5658 14.7286 18.8201C14.7228 20.0253 13.7314 21 12.5184 21H11.4788C10.2601 21 9.26862 20.0204 9.26862 18.8152C9.26696 18.6667 9.22381 18.5125 9.14334 18.3787C9.01308 18.154 8.80235 17.9931 8.55926 17.9292C8.31782 17.8652 8.05316 17.9004 7.83579 18.0251C7.31476 18.3123 6.70164 18.382 6.14079 18.2261C5.58077 18.0694 5.09708 17.6888 4.81333 17.1842L4.2948 16.3006C3.68831 15.2603 4.04922 13.9271 5.09957 13.3266C5.39742 13.1567 5.58243 12.8401 5.58243 12.5004C5.58243 12.1608 5.39742 11.8433 5.09957 11.6734C4.04839 11.0696 3.68831 9.73312 4.29397 8.69282L4.85648 7.77969C5.45466 6.75088 6.80701 6.38825 7.86151 6.98716C8.00504 7.07167 8.16102 7.11433 8.31948 7.11597C8.83636 7.11597 9.26862 6.69427 9.27691 6.17576C9.27359 5.60393 9.50175 5.05506 9.91741 4.64075C10.3347 4.22726 10.8889 4 11.4788 4H12.5184ZM12.5184 5.23064H11.4788C11.2216 5.23064 10.981 5.32991 10.7993 5.50876C10.6185 5.68843 10.5197 5.92718 10.5214 6.18151C10.504 7.38097 9.51254 8.34661 8.31202 8.34661C7.92705 8.3425 7.55619 8.23995 7.23429 8.04961C6.78212 7.79528 6.1914 7.95198 5.92674 8.40732L5.36506 9.32045C5.10786 9.76184 5.2655 10.3452 5.72347 10.6085C6.40297 10.9974 6.82692 11.7226 6.82692 12.5004C6.82692 13.2782 6.40297 14.0026 5.72181 14.3923C5.26633 14.6532 5.10869 15.2332 5.37253 15.6845L5.89604 16.5771C6.02547 16.8076 6.23703 16.9742 6.48178 17.0423C6.7257 17.1096 6.99451 17.0808 7.21852 16.9578C7.5479 16.7666 7.9312 16.6673 8.31616 16.6673C8.50616 16.6673 8.69615 16.6911 8.88199 16.7404C9.44285 16.8897 9.92986 17.2605 10.2186 17.7585C10.4061 18.0711 10.5098 18.4362 10.5131 18.8086C10.5131 19.3419 10.9462 19.7694 11.4788 19.7694H12.5184C13.0486 19.7694 13.4816 19.3444 13.4841 18.8201C13.4808 18.2409 13.7098 17.6904 14.1288 17.2761C14.5419 16.8675 15.1194 16.6222 15.6968 16.6386C16.0752 16.6477 16.4394 16.7486 16.7605 16.9291C17.2226 17.1908 17.8125 17.0349 18.0796 16.5837L18.6305 15.6755C18.7533 15.4662 18.789 15.2037 18.7234 14.9617C18.6587 14.7197 18.4961 14.5096 18.2771 14.3857C17.7644 14.0937 17.3985 13.6228 17.2466 13.0583C17.0965 12.5045 17.1786 11.8999 17.4715 11.4019C17.6623 11.0737 17.9419 10.7972 18.2771 10.6069C18.7268 10.3468 18.8844 9.76512 18.6231 9.31224C18.6123 9.29419 18.6023 9.27532 18.594 9.25563L18.1078 8.42208C17.8432 7.96675 17.2541 7.81005 16.792 8.07012C16.2925 8.36219 15.6985 8.44588 15.1277 8.29738C14.5577 8.15134 14.0798 7.79446 13.782 7.29072C13.5912 6.97568 13.4874 6.60895 13.4841 6.23565C13.4916 5.95507 13.392 5.7032 13.2112 5.5186C13.0311 5.33483 12.7781 5.23064 12.5184 5.23064ZM12.0023 9.72172C13.5512 9.72172 14.8115 10.9688 14.8115 12.5005C14.8115 14.0322 13.5512 15.2776 12.0023 15.2776C10.4533 15.2776 9.19303 14.0322 9.19303 12.5005C9.19303 10.9688 10.4533 9.72172 12.0023 9.72172ZM12.0023 10.9524C11.1394 10.9524 10.4375 11.6473 10.4375 12.5005C10.4375 13.3537 11.1394 14.047 12.0023 14.047C12.8651 14.047 13.567 13.3537 13.567 12.5005C13.567 11.6473 12.8651 10.9524 12.0023 10.9524Z"/>
</svg>
