<svg width="24" height="24" viewBox="0 0 24 24" xmlns="http://www.w3.org/2000/svg">
<path d="M11.5516 1.94595C11.735 1.57433 12.265 1.57433 12.4484 1.94595L15.4104 7.94764C15.4832 8.09521 15.624 8.19749 15.7868 8.22116L22.4101 9.18357C22.8202 9.24316 22.984 9.74715 22.6872 10.0364L17.8946 14.7081C17.7767 14.8229 17.723 14.9884 17.7508 15.1506L18.8822 21.7471C18.9522 22.1556 18.5235 22.4671 18.1567 22.2742L12.2327 19.1598C12.087 19.0832 11.913 19.0832 11.7673 19.1598L5.84331 22.2742C5.4765 22.4671 5.04778 22.1556 5.11784 21.7471L6.24923 15.1506C6.27704 14.9884 6.22327 14.8229 6.10543 14.7081L1.3128 10.0364C1.01604 9.74715 1.17979 9.24316 1.5899 9.18357L8.21315 8.22116C8.37601 8.19749 8.51679 8.09521 8.58962 7.94764L11.5516 1.94595Z"/>
</svg>
