<svg width="24" height="24" viewBox="0 0 24 24" xmlns="http://www.w3.org/2000/svg">
<path d="M1.73857 9.1925C1.76307 9.13226 1.78997 9.07202 1.81166 9.01138C1.98876 8.50658 2.44697 8.15319 2.97827 8.15198C5.22235 8.14596 7.46642 8.14957 9.7105 8.14997C9.72823 8.15236 9.74571 8.15639 9.7627 8.16202C9.74664 8.20459 9.73419 8.24716 9.71532 8.28651C9.19325 9.37321 9.43099 10.5944 10.3177 11.3763C11.1751 12.1333 12.4284 12.2229 13.42 11.5691C15.0813 10.4732 16.7315 9.36036 18.39 8.26041C18.494 8.19371 18.6143 8.15664 18.7378 8.15319C19.4659 8.14355 20.194 8.14716 20.922 8.14837C21.7104 8.14837 22.2561 8.69533 22.2605 9.48566C22.2625 9.84026 22.2605 10.1949 22.2605 10.5495C22.2605 11.4201 21.8517 11.8952 20.9779 12.0177C20.8975 12.4968 20.8172 12.9815 20.7389 13.469C20.4096 15.4879 20.0796 17.5064 19.749 19.5246C19.7088 19.7655 19.6659 20.0169 19.5699 20.2402C19.357 20.7341 18.9583 20.996 18.4201 20.9968C14.1454 21.0008 9.87073 21.0008 5.59623 20.9968C4.9328 20.9968 4.42078 20.555 4.30753 19.8763C3.99349 17.9889 3.69029 16.1014 3.38388 14.2164C3.2634 13.4847 3.14292 12.753 3.02245 12.012C2.5807 11.9787 2.21164 11.8133 1.96748 11.4402C1.8711 11.2928 1.81407 11.1189 1.73897 10.9583L1.73857 9.1925ZM8.79046 17.7612C8.79046 17.7395 8.79046 17.6989 8.78243 17.6596C8.67239 16.9796 8.56209 16.2998 8.45152 15.6203C8.35273 15.0135 8.25956 14.4055 8.15113 13.7999C8.09772 13.5007 7.85877 13.3096 7.5612 13.2911C7.29414 13.2746 7.0058 13.4453 6.93874 13.7019C6.90178 13.864 6.89727 14.0317 6.92548 14.1955C7.03391 14.9296 7.1568 15.6613 7.27486 16.3938C7.35518 16.8825 7.43108 17.3708 7.51341 17.8588C7.57445 18.2178 7.86962 18.4579 8.20053 18.4258C8.54388 18.3921 8.78925 18.123 8.79046 17.7612ZM17.1033 14.0156C17.1122 13.6064 16.8772 13.3329 16.5379 13.2927C16.3804 13.2764 16.2224 13.3191 16.0946 13.4126C15.9667 13.506 15.8781 13.6436 15.846 13.7987C15.8323 13.8573 15.8211 13.9164 15.8114 13.9758C15.6179 15.1806 15.4242 16.3864 15.2303 17.5933C15.158 18.0371 15.3649 18.3612 15.7689 18.4234C16.1227 18.4776 16.4259 18.2226 16.4917 17.8114C16.6213 17.0144 16.751 16.2172 16.8809 15.4199C16.9588 14.932 17.0347 14.4449 17.1021 14.0156H17.1033ZM11.3606 15.8629C11.3606 16.4786 11.3606 17.0944 11.3606 17.7102C11.3606 18.1367 11.6225 18.4286 12 18.429C12.3774 18.4294 12.6425 18.1363 12.6425 17.7122C12.6425 16.4742 12.6425 15.2364 12.6425 13.9987C12.6425 13.5867 12.3811 13.2955 12.0124 13.2899C11.6325 13.2843 11.3618 13.5758 11.3606 13.9967C11.3566 14.618 11.3578 15.2404 11.3582 15.8625L11.3606 15.8629Z"/>
<path d="M11.9938 10.7187C11.7212 10.7178 11.456 10.6298 11.237 10.4675C11.0179 10.3053 10.8565 10.0772 10.7762 9.81675C10.6035 9.27059 10.8035 8.6923 11.2982 8.35898C12.4387 7.59155 13.5845 6.83295 14.7278 6.06752C16.1387 5.1262 17.5489 4.18474 18.9585 3.24315C19.4047 2.94558 19.8757 2.91666 20.3384 3.18251C20.7801 3.43632 20.9922 3.84473 20.9713 4.35354C20.9528 4.80533 20.7303 5.14909 20.3544 5.39767C19.6541 5.86378 18.9545 6.33096 18.2557 6.79921C16.4352 8.01522 14.6147 9.23163 12.7941 10.4484C12.5496 10.6123 12.2929 10.7251 11.9938 10.7187Z"/>
</svg>
