<svg width="24" height="24" viewBox="0 0 24 24" xmlns="http://www.w3.org/2000/svg">
<path d="M11.814 5.04125C11.9334 4.99318 12.0666 4.99318 12.186 5.04125L18.154 7.43978L15.75 8.40542L9.596 5.93253L11.814 5.04125ZM8.25 6.47414L14.404 8.94702L12 9.91266L5.846 7.43978L8.25 6.47414V6.47414ZM5 8.18234L11.5 10.7949V18.7551L5 16.1426V8.18335V8.18234ZM12.5 18.7561V10.7939L19 8.18234V16.1436L12.5 18.7561V18.7561ZM12.557 4.10777C12.1994 3.96408 11.8006 3.96408 11.443 4.10777L4.314 6.97354C4.22131 7.01086 4.14187 7.07522 4.08591 7.15831C4.02994 7.24141 4.00002 7.33944 4 7.43978V16.1436C4.00013 16.3444 4.06011 16.5405 4.17223 16.7067C4.28434 16.8729 4.44344 17.0016 4.629 17.0761L11.814 19.9639C11.9334 20.012 12.0666 20.012 12.186 19.9639L19.37 17.0761C19.5557 17.0017 19.7151 16.8732 19.8274 16.7069C19.9397 16.5407 19.9998 16.3445 20 16.1436V7.43978C20 7.33944 19.9701 7.24141 19.9141 7.15831C19.8581 7.07522 19.7787 7.01086 19.686 6.97354L12.557 4.10777Z"/>
</svg>
