<svg width="24" height="24" viewBox="0 0 24 24" xmlns="http://www.w3.org/2000/svg">
<path d="M12.016 4C16.56 4 20 7.72559 20 11.988C20 16.9314 15.968 20 12 20C10.688 20 9.232 19.6475 8.064 18.9584C7.656 18.7101 7.312 18.5258 6.872 18.67L5.256 19.1507C4.848 19.2789 4.48 18.9584 4.6 18.5258L5.136 16.7311C5.224 16.4827 5.208 16.2183 5.08 16.01C4.392 14.7441 4 13.358 4 12.012C4 7.7977 7.368 4 12.016 4ZM15.672 10.9945C15.104 10.9945 14.648 11.4512 14.648 12.02C14.648 12.5809 15.104 13.0456 15.672 13.0456C16.24 13.0456 16.696 12.5809 16.696 12.02C16.696 11.4512 16.24 10.9945 15.672 10.9945ZM11.984 10.9945C11.424 10.9865 10.96 11.4512 10.96 12.012C10.96 12.5809 11.416 13.0376 11.984 13.0456C12.552 13.0456 13.008 12.5809 13.008 12.02C13.008 11.4512 12.552 10.9945 11.984 10.9945ZM8.296 10.9945C7.728 10.9945 7.272 11.4512 7.272 12.02C7.272 12.5809 7.736 13.0456 8.296 13.0456C8.864 13.0376 9.32 12.5809 9.32 12.02C9.32 11.4512 8.864 10.9945 8.296 10.9945Z"/>
</svg>
