<svg width="24" height="24" viewBox="0 0 24 24" xmlns="http://www.w3.org/2000/svg">
<path fill-rule="evenodd" clip-rule="evenodd" d="M12 19.5C16.1421 19.5 19.5 16.1421 19.5 12C19.5 7.85786 16.1421 4.5 12 4.5C7.85786 4.5 4.5 7.85786 4.5 12C4.5 16.1421 7.85786 19.5 12 19.5ZM15.0876 9.61949C15.2829 9.42423 15.2829 9.10765 15.0876 8.91238C14.8923 8.71712 14.5758 8.71712 14.3805 8.91238L12 11.2929L9.61947 8.91238C9.4242 8.71712 9.10762 8.71712 8.91236 8.91238C8.7171 9.10765 8.7171 9.42423 8.91236 9.61949L11.2929 12L8.91236 14.3805C8.7171 14.5758 8.7171 14.8924 8.91236 15.0876C9.10762 15.2829 9.4242 15.2829 9.61947 15.0876L12 12.7071L14.3805 15.0876C14.5757 15.2829 14.8923 15.2829 15.0876 15.0876C15.2829 14.8924 15.2829 14.5758 15.0876 14.3805L12.7071 12L15.0876 9.61949Z"/>
</svg>
