<svg width="24" height="24" viewBox="0 0 24 24" xmlns="http://www.w3.org/2000/svg">
<path fill-rule="evenodd" clip-rule="evenodd" d="M15.4873 4C18.1864 4 20 5.8947 20 8.71442V15.2856C20 18.1053 18.1864 20 15.4873 20H8.51274C5.81358 20 4 18.1053 4 15.2856V8.71442C4 5.8947 5.81358 4 8.51274 4H15.4873ZM15.4873 5.11628H8.51274C6.44986 5.11628 5.11628 6.528 5.11628 8.71442V15.2856C5.11628 17.472 6.44986 18.8837 8.51274 18.8837H15.4873C17.5509 18.8837 18.8837 17.472 18.8837 15.2856V8.71442C18.8837 6.528 17.5509 5.11628 15.4873 5.11628ZM8.55524 10.1042C8.86333 10.1042 9.11338 10.3542 9.11338 10.6623V15.7674C9.11338 16.0755 8.86333 16.3256 8.55524 16.3256C8.24714 16.3256 7.9971 16.0755 7.9971 15.7674V10.6623C7.9971 10.3542 8.24714 10.1042 8.55524 10.1042ZM12.0284 7.66028C12.3364 7.66028 12.5865 7.91033 12.5865 8.21842V15.7667C12.5865 16.0748 12.3364 16.3248 12.0284 16.3248C11.7203 16.3248 11.4702 16.0748 11.4702 15.7667V8.21842C11.4702 7.91033 11.7203 7.66028 12.0284 7.66028ZM15.4444 12.8019C15.7525 12.8019 16.0025 13.0519 16.0025 13.36V15.7667C16.0025 16.0748 15.7525 16.3248 15.4444 16.3248C15.1363 16.3248 14.8863 16.0748 14.8863 15.7667V13.36C14.8863 13.0519 15.1363 12.8019 15.4444 12.8019Z"/>
</svg>
