<svg width="24" height="24" viewBox="0 0 24 24" xmlns="http://www.w3.org/2000/svg">
<path fill-rule="evenodd" clip-rule="evenodd" d="M7.63617 2C5.94494 2 4.51851 2.60318 3.51823 3.67619C2.52295 4.74385 2 6.22171 2 7.88844V16.1116C2 17.7774 2.52023 19.2554 3.5146 20.3235C4.51415 21.3971 5.94094 22 7.63617 22H16.3638C18.0591 22 19.4859 21.3971 20.4854 20.3235C21.4798 19.2554 22 17.7774 22 16.1116V7.88844C22 6.22255 21.4798 4.74458 20.4854 3.67651C19.4859 2.6029 18.0591 2 16.3638 2H7.63617ZM3.37391 7.88844C3.37391 6.50694 3.80444 5.38406 4.5232 4.61303C5.23697 3.84736 6.28514 3.37391 7.63617 3.37391H16.3638C17.7197 3.37391 18.7675 3.84764 19.4798 4.61271C20.1973 5.38333 20.6261 6.50609 20.6261 7.88844V16.1116C20.6261 17.4939 20.1973 18.6167 19.4798 19.3873C18.7675 20.1524 17.7197 20.6261 16.3638 20.6261H7.63617C6.28027 20.6261 5.23246 20.1524 4.52018 19.3873C3.80273 18.6167 3.37391 17.4939 3.37391 16.1116V7.88844ZM13.6655 8.36754C14.0449 8.36754 14.3524 8.05998 14.3524 7.68058C14.3524 7.30119 14.0449 6.99363 13.6655 6.99363L7.2766 6.99362C6.89721 6.99362 6.58965 7.30119 6.58965 7.68058C6.58965 8.05998 6.89721 8.36754 7.2766 8.36754H13.6655ZM16.7232 12.7134C17.1026 12.7134 17.4102 12.4058 17.4102 12.0264C17.4102 11.647 17.1026 11.3395 16.7232 11.3395H7.27724C6.89784 11.3395 6.59028 11.647 6.59028 12.0264C6.59028 12.4058 6.89784 12.7134 7.27724 12.7134L16.7232 12.7134ZM10.9779 16.3019C10.9779 16.6813 10.6703 16.9888 10.2909 16.9888L7.27813 16.9888C6.89873 16.9888 6.59117 16.6813 6.59117 16.3019C6.59117 15.9225 6.89873 15.6149 7.27813 15.6149H10.2909C10.6703 15.6149 10.9779 15.9225 10.9779 16.3019Z"/>
</svg>
