<svg width="24" height="24" viewBox="0 0 24 24" xmlns="http://www.w3.org/2000/svg">
<path fill-rule="evenodd" clip-rule="evenodd" d="M16.5089 2C19.9586 2 22.7646 4.80603 22.7646 8.25672V15.7433C22.7646 19.1929 19.9586 22 16.5089 22H7.49207C4.04242 22 1.23535 19.1929 1.23535 15.7433V8.25672C1.23535 4.80603 4.04242 2 7.49207 2H16.5089ZM16.5089 3.5647H7.49207C4.9051 3.5647 2.80005 5.66974 2.80005 8.25672V15.7433C2.80005 18.3303 4.9051 20.4353 7.49207 20.4353H16.5089C19.0959 20.4353 21.1999 18.3303 21.1999 15.7433V15.4512L17.7597 15.4518C15.7809 15.4518 14.1703 13.8423 14.1693 11.8645C14.1693 9.88463 15.7799 8.27403 17.7597 8.27299L21.1999 8.27236V8.25672C21.1999 5.66974 19.0959 3.5647 16.5089 3.5647ZM21.1999 9.83706L17.7597 9.83769C16.6425 9.83873 15.734 10.7473 15.734 11.8635C15.734 12.9786 16.6436 13.8871 17.7597 13.8871L21.1999 13.8865V9.83706ZM18.2371 11.0164C18.6689 11.0164 19.0194 11.3669 19.0194 11.7988C19.0194 12.2306 18.6689 12.5811 18.2371 12.5811H17.9116C17.4798 12.5811 17.1293 12.2306 17.1293 11.7988C17.1293 11.3669 17.4798 11.0164 17.9116 11.0164H18.2371ZM12.3812 6.73384C12.8131 6.73384 13.1636 7.08434 13.1636 7.51619C13.1636 7.94805 12.8131 8.29854 12.3812 8.29854H6.74936C6.3175 8.29854 5.96701 7.94805 5.96701 7.51619C5.96701 7.08434 6.3175 6.73384 6.74936 6.73384H12.3812Z"/>
</svg>
