<svg width="24" height="24" viewBox="0 0 24 24" xmlns="http://www.w3.org/2000/svg">
<path fill-rule="evenodd" clip-rule="evenodd" d="M12 8.06372L11.256 7.23517C9.18589 4.92997 5.62622 5.51387 4.43016 7.49492C3.87611 8.41259 3.72382 9.80423 4.79222 11.6642C5.83635 13.4819 8.02715 15.6879 12 18.0929C15.9728 15.6877 18.1636 13.4816 19.2078 11.6638C20.2762 9.80376 20.1239 8.41216 19.5698 7.49458C18.3738 5.51372 14.8142 4.92992 12.744 7.23518L12 8.06372ZM12 19.2572C-4.67337 9.46461 5.92337 1.74558 11.2681 5.88543C11.5254 6.08477 11.7706 6.31161 12 6.56703C12.2294 6.31161 12.4746 6.08477 12.7319 5.88543C18.0766 1.74553 28.6733 9.46365 12 19.2572Z"/>
</svg>