<svg width="24" height="24" viewBox="0 0 24 24" xmlns="http://www.w3.org/2000/svg">
<path fill-rule="evenodd" clip-rule="evenodd" d="M10.5344 6.63945L10.5264 6.63309C8.81415 5.27734 6.31563 5.5521 4.94581 7.24679C4.30034 8.04534 3.97405 9.25069 4.05469 10.6206C4.13496 11.9844 4.61114 13.3203 5.32303 14.2598C6.10582 15.2928 7.37578 16.3007 8.72456 17.1681C10.0104 17.9951 11.2621 18.6279 11.9933 18.9743C12.7245 18.6278 13.9762 17.9951 15.262 17.1681C16.6107 16.3007 17.8806 15.2928 18.6634 14.2598C19.3774 13.3175 19.8587 11.979 19.9439 10.6151C20.0295 9.2446 19.7072 8.04236 19.0642 7.24679C17.6944 5.5521 15.1958 5.27734 13.4836 6.63309L13.4612 6.65076L12.9402 7.03374C12.3671 7.45492 11.5805 7.44595 11.0174 7.01181L10.5344 6.63945ZM11.9933 5.77179L11.5185 5.40569C9.12135 3.50764 5.62342 3.89231 3.70568 6.26487C1.78794 8.63742 2.21062 12.7721 4.0525 15.2028C5.9503 17.7074 9.86435 19.713 11.3774 20.4251C11.7699 20.6098 12.2168 20.6098 12.6093 20.4251C14.1223 19.713 18.0361 17.7073 19.9339 15.2028C21.7758 12.7721 22.2221 8.63742 20.3043 6.26487C18.3866 3.89231 14.8886 3.50764 12.4915 5.40569L11.9933 5.77179Z"/>
</svg>
