<svg width="24" height="24" viewBox="0 0 24 24" xmlns="http://www.w3.org/2000/svg">
<path fill-rule="evenodd" clip-rule="evenodd" d="M7.78125 6.10716C6.27825 6.10716 4.6875 7.35432 4.6875 9.32149C4.6875 11.6251 6.465 13.7616 8.47312 15.4094C9.56868 16.302 10.7494 17.0951 12 17.7784C13.2506 17.0952 14.4313 16.302 15.5269 15.4094C17.535 13.7616 19.3125 11.6251 19.3125 9.32149C19.3125 7.35432 17.7218 6.10716 16.2188 6.10716C14.6741 6.10716 13.2836 7.16361 12.8111 8.73863C12.7607 8.90641 12.6542 9.05399 12.5079 9.15904C12.3615 9.26409 12.1833 9.32091 12 9.32091C11.8167 9.32091 11.6385 9.26409 11.4921 9.15904C11.3458 9.05399 11.2393 8.90641 11.1889 8.73863C10.7164 7.16361 9.32588 6.10716 7.78125 6.10716ZM12 18.6966L11.6119 19.4102L11.6096 19.4091L11.6029 19.4059L11.5826 19.3952C11.4649 19.3371 11.3486 19.2763 11.2339 19.2131C9.86318 18.4697 8.56996 17.6036 7.37175 16.6266C5.2995 14.9262 3 12.3751 3 9.32149C3 6.46717 5.34675 4.5 7.78125 4.5C9.52163 4.5 11.0471 5.3593 12 6.66432C12.9529 5.3593 14.4784 4.5 16.2188 4.5C18.6532 4.5 21 6.46717 21 9.32149C21 12.3751 18.6994 14.9262 16.6294 16.6266C15.3292 17.6851 13.9177 18.6129 12.4174 19.3952L12.3971 19.4059L12.3904 19.4091H12.3881L12 18.6966ZM12 18.6966L12.3881 19.4091C12.2681 19.4681 12.135 19.5 12 19.5C11.865 19.5 11.7319 19.4692 11.6119 19.4102L12 18.6966Z"/>
<path d="M7.78125 6.10716C6.27825 6.10716 4.6875 7.35432 4.6875 9.32149C4.6875 11.6251 6.465 13.7616 8.47312 15.4094C9.56868 16.302 10.7494 17.0951 12 17.7784C13.2506 17.0952 14.4313 16.302 15.5269 15.4094C17.535 13.7616 19.3125 11.6251 19.3125 9.32149C19.3125 7.35432 17.7218 6.10716 16.2188 6.10716C14.6741 6.10716 13.2836 7.16361 12.8111 8.73863C12.7607 8.90641 12.6542 9.05399 12.5079 9.15904C12.3615 9.26409 12.1833 9.32091 12 9.32091C11.8167 9.32091 11.6385 9.26409 11.4921 9.15904C11.3458 9.05399 11.2393 8.90641 11.1889 8.73863C10.7164 7.16361 9.32588 6.10716 7.78125 6.10716Z"/>
</svg>
