<svg width="18" height="18" viewBox="0 0 18 18" xmlns="http://www.w3.org/2000/svg">
<path fill-rule="evenodd" clip-rule="evenodd" d="M9.93029 11.4682C10.6938 11.4682 11.3153 12.1469 11.3153 12.9811V15.1266C11.3153 15.3059 11.4459 15.4496 11.6133 15.4537H12.822C13.7745 15.4537 14.5488 14.6126 14.5488 13.5789V7.49383C14.5443 7.1381 14.3902 6.8033 14.1258 6.58079L9.94488 2.91332C9.38366 2.42437 8.59859 2.42437 8.03546 2.91471L3.88307 6.5794C3.60849 6.80888 3.45439 7.14368 3.45122 7.50569V13.5789C3.45122 14.6126 4.22551 15.4537 5.178 15.4537H6.3981C6.56995 15.4537 6.70946 15.3038 6.70946 15.1196C6.70946 15.0792 6.7139 15.0387 6.72151 15.0004V12.9811C6.72151 12.1518 7.33917 11.4738 8.09698 11.4682H9.93029ZM12.822 16.5H11.6019C10.9031 16.4819 10.364 15.8785 10.364 15.1266V12.9811C10.364 12.7237 10.1694 12.5145 9.93029 12.5145H8.10015C7.86615 12.5159 7.67273 12.7258 7.67273 12.9811V15.1196C7.67273 15.172 7.66639 15.2222 7.65307 15.2696C7.58459 15.9601 7.0481 16.5 6.3981 16.5H5.178C3.70107 16.5 2.5 15.1894 2.5 13.5789V7.5008C2.50634 6.80748 2.79678 6.17275 3.29839 5.75495L7.44254 2.09654C8.35507 1.30139 9.62654 1.30139 10.5372 2.09515L14.7111 5.75704C15.2013 6.16787 15.4918 6.80121 15.5 7.48616V13.5789C15.5 15.1894 14.2989 16.5 12.822 16.5Z"/>
</svg>