<svg width="24" height="24" viewBox="0 0 24 24" xmlns="http://www.w3.org/2000/svg">
<path d="M9.28091 17.0934V20.9584C9.28091 21.2284 9.45493 21.4675 9.7126 21.5525C9.77702 21.5734 9.84311 21.5834 9.90837 21.5834C10.1041 21.5834 10.2932 21.4917 10.4137 21.3284L12.6834 18.2517L9.28091 17.0934Z" fill="#23262F"/>
<path d="M21.7758 2.53254C21.5834 2.3967 21.3308 2.37837 21.1216 2.48754L2.29779 12.2792C2.07525 12.395 1.9439 12.6317 1.96231 12.8809C1.98155 13.1309 2.14804 13.3442 2.3848 13.425L7.61782 15.2067L18.7624 5.71504L10.1385 16.0642L18.9088 19.05C18.974 19.0717 19.0426 19.0834 19.1112 19.0834C19.225 19.0834 19.3379 19.0525 19.4375 18.9925C19.5965 18.8959 19.7044 18.7334 19.732 18.5509L22.0327 3.1342C22.067 2.90087 21.9683 2.6692 21.7758 2.53254V2.53254Z" fill="#23262F"/>
</svg>
