<svg width="24" height="24" viewBox="0 0 24 24" xmlns="http://www.w3.org/2000/svg">
<path fill-rule="evenodd" clip-rule="evenodd" d="M2.82014 6.40999C4.78213 3.19212 8.28766 1.23493 12.0598 1.25017L12.0568 2.00017L12.0623 1.25019C16.5269 1.28291 20.5088 4.0638 22.0701 8.24156C23.6316 12.4195 22.4474 17.1258 19.0947 20.071C15.7502 23.0089 10.9402 23.5861 6.99488 21.5263C6.98778 21.5231 6.98215 21.5203 6.9784 21.5185C6.95778 21.5085 6.93887 21.4984 6.92704 21.492C6.90119 21.4779 6.8702 21.4604 6.8398 21.4429C6.80537 21.4232 6.76183 21.398 6.71516 21.371C6.68056 21.351 6.64425 21.33 6.60864 21.3095C6.4375 21.2109 6.2646 21.1133 6.15389 21.0581C6.01688 21.0065 5.86743 20.9973 5.72508 21.0317C4.97256 21.3007 4.20377 21.522 3.4233 21.6944C3.37562 21.7049 3.32703 21.7108 3.27821 21.7119C2.93493 21.7195 2.52015 21.6315 2.23637 21.2661C1.99267 20.9523 1.96784 20.5764 1.96784 20.343C1.96784 20.2836 1.97489 20.2244 1.98885 20.1667C2.18459 19.3572 2.42936 18.5603 2.72182 17.7804C2.75947 17.644 2.74341 17.498 2.67642 17.3727L2.67049 17.3616L2.67059 17.3615L2.47159 16.9737C0.726408 13.6346 0.858598 9.62714 2.82014 6.40999ZM12.0526 2.75016C8.80531 2.73746 5.78879 4.42247 4.10086 7.19087C2.41279 9.95948 2.2995 13.4081 3.80216 16.2811L3.8049 16.2864L3.80487 16.2864L4.00266 16.6719C4.25849 17.1546 4.31149 17.7193 4.14964 18.2413C4.14524 18.2555 4.14042 18.2696 4.13519 18.2835C3.90794 18.887 3.71152 19.5016 3.54666 20.1249C4.12261 19.9818 4.69098 19.8095 5.24957 19.6087C5.26755 19.6022 5.28577 19.5964 5.30419 19.5913C5.77955 19.4604 6.28497 19.4907 6.74129 19.6774C6.75534 19.6832 6.76921 19.6894 6.78288 19.6959C6.95071 19.7768 7.18532 19.9106 7.35756 20.0098C7.39939 20.0339 7.43725 20.0558 7.47164 20.0757C7.51458 20.1006 7.5521 20.1223 7.58519 20.1413C7.60533 20.1528 7.62026 20.1612 7.63077 20.1671C7.64225 20.1724 7.65361 20.178 7.66483 20.1839C11.0657 21.9722 15.2193 21.4787 18.1048 18.944C20.99 16.4096 22.0082 12.3606 20.6651 8.76668C19.322 5.17293 15.896 2.77883 12.0526 2.75016Z"/>
<path fill-rule="evenodd" clip-rule="evenodd" d="M7.28716 12.274C7.4368 12.274 7.5602 12.1525 7.5602 12.0001C7.5602 11.8478 7.4368 11.7263 7.28716 11.7263C7.13752 11.7263 7.01413 11.8478 7.01413 12.0001C7.01413 12.1525 7.13752 12.274 7.28716 12.274ZM6.0602 12.0001C6.0602 11.3218 6.61068 10.774 7.28716 10.774C7.96364 10.774 8.51413 11.3218 8.51413 12.0001C8.51413 12.6785 7.96364 13.2263 7.28716 13.2263C6.61068 13.2263 6.0602 12.6785 6.0602 12.0001Z"/>
<path fill-rule="evenodd" clip-rule="evenodd" d="M12.0568 12.274C12.2065 12.274 12.3298 12.1525 12.3298 12.0001C12.3298 11.8478 12.2065 11.7263 12.0568 11.7263C11.9072 11.7263 11.7838 11.8478 11.7838 12.0001C11.7838 12.1525 11.9072 12.274 12.0568 12.274ZM10.8298 12.0001C10.8298 11.3218 11.3803 10.774 12.0568 10.774C12.7333 10.774 13.2838 11.3218 13.2838 12.0001C13.2838 12.6785 12.7333 13.2263 12.0568 13.2263C11.3803 13.2263 10.8298 12.6785 10.8298 12.0001Z"/>
<path fill-rule="evenodd" clip-rule="evenodd" d="M16.8265 12.274C16.9761 12.274 17.0995 12.1525 17.0995 12.0001C17.0995 11.8478 16.9761 11.7263 16.8265 11.7263C16.6768 11.7263 16.5534 11.8478 16.5534 12.0001C16.5534 12.1525 16.6768 12.274 16.8265 12.274ZM15.5995 12.0001C15.5995 11.3218 16.15 10.774 16.8265 10.774C17.503 10.774 18.0534 11.3218 18.0534 12.0001C18.0534 12.6785 17.503 13.2263 16.8265 13.2263C16.15 13.2263 15.5995 12.6785 15.5995 12.0001Z"/>
</svg>
