<svg width="24" height="24" viewBox="0 0 24 24" xmlns="http://www.w3.org/2000/svg">
<path fill-rule="evenodd" clip-rule="evenodd" d="M5.36809 8.09322C5.62651 7.7695 6.09843 7.71656 6.42214 7.97498L10.7214 11.407C11.2556 11.8241 12.0016 11.8244 12.5361 11.4079L16.7974 7.97694C17.12 7.71717 17.5922 7.76814 17.8519 8.09078C18.1117 8.41341 18.0607 8.88554 17.7381 9.14531L13.4651 12.5857C12.3861 13.4316 10.8725 13.4315 9.79355 12.5856L9.78837 12.5816L5.48633 9.14727C5.16261 8.88885 5.10968 8.41693 5.36809 8.09322Z"/>
<path fill-rule="evenodd" clip-rule="evenodd" d="M6.88787 3.75C4.45906 3.75 2.75 5.70834 2.75 8.29412V14.822C2.75 17.4078 4.45906 19.3661 6.88787 19.3661H16.3115C17.4627 19.3521 18.5593 18.8649 19.3459 18.0161C20.1336 17.1661 20.5415 16.0278 20.4733 14.866C20.4724 14.8513 20.472 14.8367 20.472 14.822V8.29412C20.472 8.27945 20.4724 8.26478 20.4733 8.25013C20.5415 7.08836 20.1336 5.94997 19.3459 5.09999C18.5593 4.25118 17.4627 3.76402 16.3114 3.75H6.88787ZM1.25 8.29412C1.25 5.04255 3.47686 2.25 6.88787 2.25H16.3242C17.8902 2.26756 19.3797 2.92966 20.4461 4.08041C21.5072 5.22542 22.0575 6.75484 21.972 8.31536V14.8008C22.0575 16.3613 21.5072 17.8907 20.4461 19.0357C19.3797 20.1864 17.8902 20.8485 16.3242 20.8661L16.3158 20.8662L6.88787 20.8661C3.47686 20.8661 1.25 18.0736 1.25 14.822V8.29412Z"/>
</svg>
