<svg width="24" height="24" viewBox="0 0 24 24" xmlns="http://www.w3.org/2000/svg">
<path fill-rule="evenodd" clip-rule="evenodd" d="M15.4823 7.73969C15.6796 7.93705 15.7511 8.22766 15.6677 8.49402L14.075 13.5833C14.0016 13.8179 13.8179 14.0016 13.5833 14.075L8.49402 15.6677C8.22766 15.7511 7.93705 15.6796 7.73969 15.4823C7.54234 15.2849 7.4709 14.9943 7.55426 14.7279L9.14693 9.6387C9.22035 9.40409 9.40409 9.22035 9.6387 9.14693L14.7279 7.55426C14.9943 7.4709 15.2849 7.54234 15.4823 7.73969ZM10.4613 10.4613L9.41385 13.8081L12.7607 12.7607L13.8081 9.41385L10.4613 10.4613Z"/>
<path fill-rule="evenodd" clip-rule="evenodd" d="M11.611 2.75C6.7172 2.75 2.75 6.7172 2.75 11.611C2.75 16.5048 6.7172 20.472 11.611 20.472C16.5048 20.472 20.472 16.5048 20.472 11.611C20.472 6.7172 16.5048 2.75 11.611 2.75ZM1.25 11.611C1.25 5.88877 5.88877 1.25 11.611 1.25C17.3332 1.25 21.972 5.88877 21.972 11.611C21.972 17.3332 17.3332 21.972 11.611 21.972C5.88877 21.972 1.25 17.3332 1.25 11.611Z"/>
</svg>
