<svg width="24" height="24" viewBox="0 0 24 24" xmlns="http://www.w3.org/2000/svg">
<path fill-rule="evenodd" clip-rule="evenodd" d="M17.0406 9.20003C17.368 9.45373 17.4278 9.92483 17.1741 10.2523L14.245 14.0326C14.1227 14.1905 13.9424 14.2931 13.7441 14.3176C13.5458 14.342 13.346 14.2864 13.1889 14.163L10.3704 11.9491L7.83927 15.2388C7.58668 15.5671 7.11579 15.6285 6.7875 15.3759C6.45921 15.1233 6.39785 14.6524 6.65043 14.3241L9.64357 10.4339C9.76566 10.2753 9.94613 10.172 10.1448 10.1471C10.3435 10.1222 10.5438 10.1778 10.7013 10.3015L13.5217 12.517L15.9884 9.33354C16.2421 9.00611 16.7132 8.94634 17.0406 9.20003Z"/>
<path fill-rule="evenodd" clip-rule="evenodd" d="M19.9954 3.02803C19.3481 3.02803 18.8232 3.55284 18.8232 4.20023C18.8232 4.84761 19.3481 5.37242 19.9954 5.37242C20.6428 5.37242 21.1676 4.84761 21.1676 4.20023C21.1676 3.55284 20.6428 3.02803 19.9954 3.02803ZM17.3232 4.20023C17.3232 2.72441 18.5196 1.52803 19.9954 1.52803C21.4713 1.52803 22.6676 2.72441 22.6676 4.20023C22.6676 5.67604 21.4713 6.87242 19.9954 6.87242C18.5196 6.87242 17.3232 5.67604 17.3232 4.20023Z"/>
<path fill-rule="evenodd" clip-rule="evenodd" d="M3.5381 4.05304C4.53795 2.97451 5.96488 2.37013 7.65676 2.37013H14.9245C15.3387 2.37013 15.6745 2.70592 15.6745 3.12013C15.6745 3.53435 15.3387 3.87013 14.9245 3.87013H7.65676C6.33721 3.87013 5.32478 4.33212 4.63813 5.07281C3.94553 5.81992 3.52805 6.91245 3.52805 8.2643V16.3467C3.52805 17.7023 3.93856 18.7916 4.62514 19.5344C5.30512 20.27 6.31589 20.7317 7.65676 20.7317H16.2609C17.5814 20.7317 18.5939 20.2713 19.2802 19.5329C19.9722 18.7883 20.3896 17.6984 20.3896 16.3467V9.30778C20.3896 8.89356 20.7254 8.55778 21.1396 8.55778C21.5538 8.55778 21.8896 8.89356 21.8896 9.30778V16.3467C21.8896 18.0064 21.3734 19.484 20.3789 20.5541C19.3787 21.6303 17.9518 22.2317 16.2609 22.2317H7.65676C5.94959 22.2317 4.521 21.6316 3.52363 20.5526C2.53286 19.4807 2.02805 18.0025 2.02805 16.3467V8.2643C2.02805 6.6047 2.5442 5.12515 3.5381 4.05304Z"/>
</svg>
