<svg width="24" height="24" viewBox="0 0 24 24" xmlns="http://www.w3.org/2000/svg">
<path fill-rule="evenodd" clip-rule="evenodd" d="M7.74622 16.2234C7.74622 15.8092 8.082 15.4734 8.49622 15.4734H15.7162C16.1304 15.4734 16.4662 15.8092 16.4662 16.2234C16.4662 16.6376 16.1304 16.9734 15.7162 16.9734H8.49622C8.082 16.9734 7.74622 16.6376 7.74622 16.2234Z"/>
<path fill-rule="evenodd" clip-rule="evenodd" d="M7.74622 12.0369C7.74622 11.6227 8.082 11.2869 8.49622 11.2869H15.7162C16.1304 11.2869 16.4662 11.6227 16.4662 12.0369C16.4662 12.4511 16.1304 12.7869 15.7162 12.7869H8.49622C8.082 12.7869 7.74622 12.4511 7.74622 12.0369Z"/>
<path fill-rule="evenodd" clip-rule="evenodd" d="M7.74631 7.8601C7.74631 7.44589 8.08209 7.1101 8.49631 7.1101H11.2513C11.6655 7.1101 12.0013 7.44589 12.0013 7.8601C12.0013 8.27431 11.6655 8.6101 11.2513 8.6101H8.49631C8.08209 8.6101 7.74631 8.27431 7.74631 7.8601Z"/>
<path fill-rule="evenodd" clip-rule="evenodd" d="M15.9086 1.9998C17.469 1.9998 18.8023 2.51475 19.7448 3.48741C20.6843 4.45717 21.1656 5.80963 21.1656 7.3568V16.5528C21.1656 18.0927 20.6878 19.4391 19.756 20.4073C18.8213 21.3784 17.4987 21.8972 15.9502 21.9068L15.9456 21.9068L8.25725 21.9098C6.69681 21.9098 5.36306 21.3948 4.42089 20.4221C3.48156 19.4523 3.00061 18.0999 3.00061 16.5528V7.3568C3.00061 5.81705 3.47807 4.47085 4.40973 3.50284C5.34418 2.53194 6.66668 2.01335 8.21499 2.00382L8.21961 2.00379L15.9086 1.9998ZM15.9088 3.4998C15.9087 3.4998 15.9088 3.4998 15.9088 3.4998L8.22423 3.50379C8.22355 3.50379 8.22287 3.5038 8.2222 3.5038C7.01152 3.5117 6.1002 3.90952 5.49049 4.54302C4.87766 5.17975 4.50061 6.12655 4.50061 7.3568V16.5528C4.50061 17.7897 4.88066 18.7408 5.49833 19.3785C6.11312 20.0132 7.03295 20.4098 8.2564 20.4098C8.25647 20.4098 8.25634 20.4098 8.2564 20.4098L15.941 20.4068C15.9416 20.4068 15.9423 20.4068 15.9429 20.4068C17.1535 20.3989 18.0652 20.0009 18.6752 19.3671C19.2884 18.73 19.6656 17.7829 19.6656 16.5528V7.3568C19.6656 6.11998 19.2854 5.16893 18.6675 4.53119C18.0524 3.8964 17.1322 3.49987 15.9088 3.4998Z"/>
</svg>
