<svg width="24" height="24" viewBox="0 0 24 24" xmlns="http://www.w3.org/2000/svg">
<path fill-rule="evenodd" clip-rule="evenodd" d="M16.3591 2C19.733 2 22 4.36837 22 7.89302V16.107C22 19.6316 19.733 22 16.3591 22H7.64093C4.26698 22 2 19.6316 2 16.107V7.89302C2 4.36837 4.26698 2 7.64093 2H16.3591ZM16.3591 3.39535H7.64093C5.06233 3.39535 3.39535 5.16 3.39535 7.89302V16.107C3.39535 18.84 5.06233 20.6047 7.64093 20.6047H16.3591C18.9386 20.6047 20.6047 18.84 20.6047 16.107V7.89302C20.6047 5.16 18.9386 3.39535 16.3591 3.39535ZM12 7.88586C12.3851 7.88586 12.6977 8.19842 12.6977 8.58354V11.293L15.4107 11.2932C15.7958 11.2932 16.1084 11.6058 16.1084 11.9909C16.1084 12.376 15.7958 12.6886 15.4107 12.6886L12.6977 12.6884V15.3993C12.6977 15.7845 12.3851 16.097 12 16.097C11.6149 16.097 11.3023 15.7845 11.3023 15.3993V12.6884L8.5893 12.6886C8.20326 12.6886 7.89163 12.376 7.89163 11.9909C7.89163 11.6058 8.20326 11.2932 8.5893 11.2932L11.3023 11.293V8.58354C11.3023 8.19842 11.6149 7.88586 12 7.88586Z"/>
</svg>