<svg width="24" height="24" viewBox="0 0 24 24" xmlns="http://www.w3.org/2000/svg">
<path fill-rule="evenodd" clip-rule="evenodd" d="M11.2197 6.47467C8.67571 6.47467 6.61337 8.53701 6.61337 11.081C6.61337 13.6251 8.67571 15.6874 11.2197 15.6874C13.7638 15.6874 15.8261 13.6251 15.8261 11.081C15.8261 8.53701 13.7638 6.47467 11.2197 6.47467ZM5.11337 11.081C5.11337 7.70858 7.84728 4.97467 11.2197 4.97467C14.5922 4.97467 17.3261 7.70858 17.3261 11.081C17.3261 14.4535 14.5922 17.1874 11.2197 17.1874C7.84728 17.1874 5.11337 14.4535 5.11337 11.081Z" fill="#23262F"/>
<path fill-rule="evenodd" clip-rule="evenodd" d="M14.415 14.5548C14.7078 14.2618 15.1827 14.2618 15.4757 14.5546L18.6669 17.7449C18.9598 18.0378 18.9599 18.5127 18.667 18.8056C18.3742 19.0985 17.8993 19.0986 17.6064 18.8057L14.4151 15.6154C14.1222 15.3226 14.1221 14.8477 14.415 14.5548Z" fill="#23262F"/>
</svg>
