<svg width="24" height="24" viewBox="0 0 24 24" xmlns="http://www.w3.org/2000/svg">
<path fill-rule="evenodd" clip-rule="evenodd" d="M15.3509 4C17.9146 4 20 6.11277 20 8.71094V14.3479C20 16.9453 17.9146 19.0588 15.3509 19.0588H8.64984C6.08615 19.0588 4 16.9453 4 14.3479V8.71094C4 6.11277 6.08615 4 8.64984 4H15.3509ZM15.3509 5.17813H8.64984C6.72726 5.17813 5.16285 6.7631 5.16285 8.71094V14.3479C5.16285 16.2957 6.72726 17.8807 8.64984 17.8807H15.3509C17.2735 17.8807 18.8372 16.2957 18.8372 14.3479V14.128L16.2805 14.1284C14.8099 14.1284 13.6129 12.9165 13.6122 11.4274C13.6122 9.93666 14.8091 8.72398 16.2805 8.72319L18.8372 8.72272V8.71094C18.8372 6.7631 17.2735 5.17813 15.3509 5.17813ZM18.8372 9.90085L16.2805 9.90132C15.4502 9.9021 14.775 10.5862 14.775 11.4266C14.775 12.2662 15.451 12.9503 16.2805 12.9503L18.8372 12.9498V9.90085ZM16.6353 10.7888C16.9562 10.7888 17.2167 11.0527 17.2167 11.3779C17.2167 11.7031 16.9562 11.967 16.6353 11.967H16.3934C16.0724 11.967 15.812 11.7031 15.812 11.3779C15.812 11.0527 16.0724 10.7888 16.3934 10.7888H16.6353ZM12.2833 7.56431C12.6043 7.56431 12.8648 7.82821 12.8648 8.15337C12.8648 8.47853 12.6043 8.74243 12.2833 8.74243H8.09787C7.77693 8.74243 7.51645 8.47853 7.51645 8.15337C7.51645 7.82821 7.77693 7.56431 8.09787 7.56431H12.2833Z"/>
</svg>
